<svg width="264" height="240" viewBox="0 0 264 240" fill="none" xmlns="http://www.w3.org/2000/svg">
<mask id="mask0_11166_16905" style="mask-type:alpha" maskUnits="userSpaceOnUse" x="0" y="0" width="264" height="240">
<rect width="264" height="240" fill="#C4C4C4"/>
</mask>
<g mask="url(#mask0_11166_16905)">
<g clip-path="url(#clip0_11166_16905)">
<path d="M75.2201 218.73C75.2201 218.73 56.5125 219.17 50.264 219.17C45.024 219.17 29.2839 218.73 29.2839 218.73C29.0114 218.732 28.7411 218.681 28.4886 218.581C28.236 218.48 28.0061 218.331 27.812 218.143C27.6179 217.955 27.4634 217.732 27.3572 217.485C27.2511 217.239 27.1955 216.974 27.1935 216.706C27.1935 216.706 26.9407 209.296 26.8573 207.269C26.511 198.175 27.1935 172.254 27.1935 172.254C27.2015 171.716 27.4258 171.203 27.8175 170.827C28.2092 170.451 28.7363 170.243 29.2839 170.247C29.2839 170.247 52.6501 169.515 60.4431 169.502C66.229 169.502 75.2201 170.247 75.2201 170.247C75.4925 170.245 75.7627 170.295 76.0152 170.396C76.2678 170.496 76.4977 170.644 76.6918 170.832C76.886 171.02 77.0406 171.243 77.1467 171.49C77.2529 171.736 77.3085 172.001 77.3105 172.269V216.706C77.3085 216.974 77.2529 217.239 77.1468 217.485C77.0406 217.732 76.8861 217.955 76.692 218.143C76.4979 218.331 76.268 218.48 76.0154 218.581C75.7629 218.681 75.4926 218.732 75.2201 218.73Z" fill="#006FE6"/>
<path fill-rule="evenodd" clip-rule="evenodd" d="M77.3104 194.336C77.3104 189.272 76.1704 183.185 73.443 179.282C68.8931 172.778 60.7589 169.885 52.0333 169.885C45.12 169.885 39.8598 173.113 35.2973 177.459C30.6463 181.894 26.7561 187.519 26.7561 194.336C26.7561 200.725 30.1938 206.383 34.3393 210.738C38.9574 215.588 44.6751 218.787 52.0333 218.787C59.0123 218.787 65.4074 215.025 70.0256 210.642C75.2529 205.682 77.3104 201.088 77.3104 194.336Z" fill="#5CDEF1"/>
</g>
<g clip-path="url(#clip1_11166_16905)">
<path d="M195.464 118.895C195.464 118.895 176.756 119.335 170.508 119.335C165.268 119.335 149.528 118.895 149.528 118.895C149.255 118.897 148.985 118.846 148.732 118.746C148.48 118.645 148.25 118.497 148.056 118.309C147.862 118.121 147.707 117.897 147.601 117.65C147.495 117.404 147.439 117.139 147.437 116.871C147.437 116.871 147.185 109.461 147.101 107.435C146.755 98.3405 147.437 72.4191 147.437 72.4191C147.445 71.8811 147.67 71.3682 148.061 70.9922C148.453 70.6163 148.98 70.4078 149.528 70.4125C149.528 70.4125 172.894 69.6799 180.687 69.6675C186.473 69.6675 195.464 70.4125 195.464 70.4125C195.736 70.4102 196.007 70.4607 196.259 70.5611C196.512 70.6614 196.742 70.8097 196.936 70.9975C197.13 71.1852 197.284 71.4087 197.391 71.6552C197.497 71.9017 197.552 72.1663 197.554 72.434V116.871C197.552 117.139 197.497 117.404 197.391 117.65C197.285 117.897 197.13 118.121 196.936 118.309C196.742 118.497 196.512 118.645 196.259 118.746C196.007 118.846 195.737 118.897 195.464 118.895Z" fill="#10C476"/>
<path fill-rule="evenodd" clip-rule="evenodd" d="M197.554 94.5011C197.554 89.4375 196.414 83.3507 193.687 79.4469C189.137 72.9429 181.003 70.0498 172.277 70.0498C165.364 70.0498 160.104 73.2782 155.541 77.6241C150.89 82.0594 147 87.6842 147 94.5011C147 100.891 150.438 106.548 154.583 110.904C159.201 115.754 164.919 118.952 172.277 118.952C179.256 118.952 185.651 115.19 190.269 110.807C195.497 105.848 197.554 101.253 197.554 94.5011Z" fill="#D5FCEB"/>
</g>
<g clip-path="url(#clip2_11166_16905)">
<path d="M196.601 121.563C196.601 121.563 197.044 139.896 197.044 146.01C197.044 151.155 196.601 166.583 196.601 166.583C196.601 166.852 196.548 167.119 196.445 167.368C196.343 167.617 196.192 167.843 196.003 168.033C195.813 168.223 195.588 168.374 195.34 168.477C195.092 168.581 194.827 168.634 194.559 168.634C194.559 168.634 187.082 168.885 185.038 168.963C175.862 169.303 149.709 168.634 149.709 168.634C149.171 168.63 148.655 168.412 148.276 168.028C147.897 167.643 147.684 167.124 147.685 166.583C147.685 166.583 146.946 143.688 146.933 136.044C146.933 130.374 147.685 121.563 147.685 121.563C147.685 121.293 147.737 121.027 147.84 120.778C147.942 120.529 148.092 120.303 148.281 120.113C148.471 119.922 148.696 119.771 148.943 119.668C149.191 119.565 149.456 119.512 149.725 119.512L194.559 119.512C195.1 119.512 195.62 119.728 196.003 120.113C196.386 120.497 196.601 121.019 196.601 121.563Z" fill="#FFCC24"/>
<path d="M147.615 166.731C147.61 166.98 147.655 167.227 147.747 167.457C147.839 167.688 147.976 167.898 148.149 168.075C148.323 168.253 148.53 168.393 148.758 168.489C148.986 168.585 149.231 168.634 149.479 168.634L169.1 168.634C169.551 168.631 169.985 168.465 170.325 168.166C170.664 167.868 170.884 167.457 170.946 167.008C171.43 163.788 173.219 160.736 174.544 157.971C176.717 153.44 180.213 149.682 184.567 147.198C187.691 145.416 190.813 143.869 194.494 143.509C194.943 143.466 195.361 143.26 195.671 142.93C195.98 142.6 196.159 142.168 196.175 141.715L196.676 127.769L196.676 121.256C196.675 121.003 196.623 120.753 196.524 120.521C196.425 120.288 196.28 120.079 196.098 119.904C195.916 119.73 195.7 119.594 195.465 119.505C195.229 119.416 194.978 119.375 194.727 119.386C190.568 119.546 186.446 120.239 182.462 121.447C176.965 123.115 172.212 126.099 167.717 129.463C162.012 133.735 155.845 138.417 152.445 144.727C148.938 151.195 147.77 158.879 147.615 166.731Z" fill="#006FE6"/>
<path d="M163.44 132.733L163.44 136.044L159.529 136.044C159.404 136.157 159.281 136.27 159.161 136.384L163.44 136.384L163.44 141.026L158.945 141.026L158.945 136.585L158.607 136.907L158.607 141.026L154.864 141.026L154.613 141.366L158.622 141.366L158.622 146.01L154.114 146.01L154.114 142.04C153.999 142.201 153.886 142.362 153.776 142.526L153.776 146.01L151.772 146.01L151.611 146.35L153.771 146.35L153.771 150.992L149.835 150.992L149.732 151.331L153.776 151.331L153.776 155.976L149.281 155.976L149.281 152.957C149.161 153.438 149.046 153.918 148.938 154.396L148.938 155.976L148.622 155.976L148.562 156.315L148.938 156.315L148.938 160.957L147.936 160.957L147.903 161.297L148.938 161.297L148.938 165.939L147.635 165.939L147.635 166.279L148.938 166.279L148.938 168.556C149.048 168.59 149.161 168.613 149.276 168.623L149.276 166.281L153.776 166.281L153.776 168.634L154.114 168.634L154.114 166.279L158.607 166.279L158.607 168.634L158.945 168.634L158.945 166.279L163.44 166.279L163.44 168.634L163.778 168.634L163.778 166.279L168.273 166.279L168.273 168.634L168.611 168.634L168.611 166.279L171.082 166.279C171.105 166.166 171.13 166.053 171.157 165.939L168.611 165.939L168.611 161.297L172.903 161.297L173.066 160.957L168.611 160.957L168.611 156.315L173.106 156.315L173.106 160.879L173.445 160.193L173.445 156.315L175.416 156.315C175.482 156.2 175.552 156.089 175.619 155.976L173.445 155.976L173.445 151.331L177.94 151.331L177.94 152.723C178.05 152.592 178.163 152.461 178.278 152.33L178.278 151.324L179.205 151.324L179.546 150.984L178.278 150.984L178.278 146.35L182.763 146.35L182.763 148.33L183.101 148.098L183.101 146.337L186.095 146.337C186.311 146.221 186.526 146.108 186.742 145.998L183.108 145.998L183.108 141.353L187.603 141.353L187.603 145.58C187.716 145.525 187.829 145.472 187.942 145.419L187.942 141.366L192.437 141.366L192.437 143.841C192.549 143.816 192.662 143.794 192.775 143.771L192.775 141.366L196.182 141.366L196.195 141.026L192.785 141.026L192.785 136.384L196.373 136.384L196.373 136.044L192.785 136.044L192.785 131.4L196.543 131.4L196.543 131.06L192.785 131.06L192.785 126.418L196.681 126.418L196.681 126.079L192.785 126.079L192.785 121.434L196.681 121.434L196.681 121.256C196.681 121.2 196.681 121.145 196.681 121.09L192.785 121.09L192.785 119.505L192.447 119.535L192.447 121.09L187.942 121.09L187.942 120.131C187.829 120.151 187.716 120.171 187.603 120.194L187.603 121.09L183.707 121.09C183.311 121.198 182.913 121.308 182.522 121.427L182.773 121.427L182.773 126.079L178.278 126.079L178.278 123.017C178.163 123.067 178.05 123.117 177.94 123.17L177.94 126.079L173.445 126.079L173.445 125.576L173.106 125.779L173.106 126.086L172.605 126.086C172.427 126.2 172.247 126.31 172.069 126.426L173.099 126.426L173.099 131.068L168.611 131.068L168.611 128.804C168.499 128.884 168.386 128.97 168.273 129.055L168.273 131.068L165.597 131.068L165.154 131.408L168.273 131.408L168.273 136.044L163.778 136.044L163.778 132.467L163.44 132.733ZM168.273 161.297L168.273 165.939L163.778 165.939L163.778 161.297L168.273 161.297ZM163.44 161.297L163.44 165.939L158.945 165.939L158.945 161.297L163.44 161.297ZM158.607 161.297L158.607 165.939L154.114 165.939L154.114 161.297L158.607 161.297ZM153.776 161.297L153.776 165.939L149.281 165.939L149.281 161.297L153.776 161.297ZM168.273 156.315L168.273 160.957L163.778 160.957L163.778 156.315L168.273 156.315ZM163.44 156.315L163.44 160.957L158.945 160.957L158.945 156.315L163.44 156.315ZM158.607 156.315L158.607 160.957L154.114 160.957L154.114 156.315L158.607 156.315ZM153.776 156.315L153.776 160.957L149.281 160.957L149.281 156.315L153.776 156.315ZM173.106 151.331L173.106 155.976L168.611 155.976L168.611 151.331L173.106 151.331ZM168.273 151.331L168.273 155.976L163.778 155.976L163.778 151.331L168.273 151.331ZM163.44 151.331L163.44 155.976L158.945 155.976L158.945 151.331L163.44 151.331ZM158.607 151.331L158.607 155.976L154.114 155.976L154.114 151.331L158.607 151.331ZM177.94 146.35L177.94 150.992L173.445 150.992L173.445 146.35L177.94 146.35ZM173.106 146.35L173.106 150.992L168.611 150.992L168.611 146.35L173.106 146.35ZM168.273 146.35L168.273 150.992L163.778 150.992L163.778 146.35L168.273 146.35ZM163.44 146.35L163.44 150.992L158.945 150.992L158.945 146.35L163.44 146.35ZM158.607 146.35L158.607 150.992L154.114 150.992L154.114 146.35L158.607 146.35ZM182.763 141.366L182.763 146.01L178.278 146.01L178.278 141.366L182.763 141.366ZM177.932 141.366L177.932 146.01L173.445 146.01L173.445 141.366L177.932 141.366ZM173.099 141.366L173.099 146.01L168.611 146.01L168.611 141.366L173.099 141.366ZM168.266 141.366L168.266 146.01L163.778 146.01L163.778 141.366L168.266 141.366ZM163.432 141.366L163.432 146.01L158.945 146.01L158.945 141.366L163.432 141.366ZM192.429 136.384L192.429 141.026L187.942 141.026L187.942 136.384L192.429 136.384ZM187.596 136.384L187.596 141.026L183.108 141.026L183.108 136.384L187.596 136.384ZM182.763 136.384L182.763 141.026L178.278 141.026L178.278 136.384L182.763 136.384ZM177.932 136.384L177.932 141.026L173.445 141.026L173.445 136.384L177.932 136.384ZM173.099 136.384L173.099 141.026L168.611 141.026L168.611 136.384L173.099 136.384ZM168.266 136.384L168.266 141.026L163.778 141.026L163.778 136.384L168.266 136.384ZM192.429 131.4L192.429 136.044L187.942 136.044L187.942 131.4L192.429 131.4ZM187.596 131.4L187.596 136.044L183.108 136.044L183.108 131.4L187.596 131.4ZM182.763 131.4L182.763 136.044L178.278 136.044L178.278 131.4L182.763 131.4ZM177.932 131.4L177.932 136.044L173.445 136.044L173.445 131.4L177.932 131.4ZM173.099 131.4L173.099 136.044L168.611 136.044L168.611 131.4L173.099 131.4ZM192.429 126.418L192.429 131.068L187.942 131.068L187.942 126.426L192.429 126.418ZM187.596 126.418L187.596 131.068L183.108 131.068L183.108 126.426L187.596 126.418ZM182.763 126.418L182.763 131.068L178.278 131.068L178.278 126.426L182.763 126.418ZM177.932 126.418L177.932 131.068L173.445 131.068L173.445 126.426L177.932 126.418ZM192.429 121.434L192.429 126.079L187.942 126.079L187.942 121.434L192.429 121.434ZM187.596 121.434L187.596 126.079L183.108 126.079L183.108 121.434L187.596 121.434Z" fill="#FFCC24"/>
</g>
<g clip-path="url(#clip3_11166_16905)">
<path d="M124.807 218.73C124.807 218.73 106.473 219.17 100.359 219.17C95.2141 219.17 79.7863 218.73 79.7863 218.73C79.517 218.73 79.2504 218.678 79.0016 218.576C78.7528 218.474 78.5268 218.325 78.3364 218.137C78.146 217.949 77.9949 217.726 77.8919 217.481C77.7888 217.235 77.7358 216.972 77.7358 216.706C77.7358 216.706 77.4842 209.296 77.4062 207.269C77.0666 198.175 77.7358 172.254 77.7358 172.254C77.7398 171.72 77.9577 171.209 78.3419 170.833C78.726 170.457 79.2453 170.247 79.7863 170.247C79.7863 170.247 102.681 169.515 110.325 169.502C115.996 169.502 124.807 170.247 124.807 170.247C125.076 170.247 125.342 170.299 125.591 170.4C125.84 170.502 126.066 170.651 126.257 170.838C126.447 171.026 126.598 171.249 126.701 171.495C126.804 171.74 126.857 172.003 126.857 172.269V216.706C126.857 217.243 126.641 217.758 126.257 218.137C125.872 218.517 125.351 218.73 124.807 218.73Z" fill="#5C6DB4"/>
<path d="M79.6379 170.178C79.3895 170.173 79.1427 170.218 78.9119 170.309C78.6811 170.4 78.4711 170.535 78.294 170.708C78.1169 170.88 77.9763 171.085 77.8805 171.311C77.7846 171.537 77.7355 171.78 77.7358 172.025V191.473C77.7388 191.92 77.9047 192.351 78.2031 192.687C78.5016 193.023 78.9127 193.241 79.3611 193.303C82.5816 193.782 85.6334 195.555 88.3984 196.869C92.9289 199.022 96.687 202.488 99.1717 206.803C100.953 209.899 102.5 212.994 102.86 216.642C102.903 217.087 103.109 217.502 103.439 217.808C103.769 218.115 104.201 218.293 104.654 218.308L118.6 218.805H125.114C125.366 218.804 125.617 218.753 125.849 218.654C126.081 218.556 126.291 218.412 126.465 218.232C126.64 218.051 126.776 217.838 126.865 217.604C126.954 217.371 126.994 217.122 126.983 216.873C126.823 212.751 126.131 208.666 124.923 204.716C123.254 199.268 120.271 194.557 116.907 190.102C112.635 184.447 107.952 178.336 101.642 174.966C95.1739 171.489 87.4902 170.332 79.6379 170.178Z" fill="#A9D49A"/>
<path d="M113.636 185.863H110.325V181.986C110.213 181.862 110.099 181.74 109.985 181.621V185.863H105.343V181.407H109.784L109.462 181.072H105.343V177.362L105.004 177.114V181.087H100.359V176.62H104.329C104.168 176.505 104.007 176.394 103.844 176.284H100.359V174.298L100.02 174.139V176.279H95.3777V172.378L95.038 172.276V176.284H90.3936V171.829H93.4127C92.9314 171.71 92.4516 171.596 91.9736 171.489H90.3936V171.176L90.0539 171.116V171.489H85.412V170.496L85.0724 170.463V171.489H80.4304V170.198H80.0908V171.489H77.8138C77.7794 171.598 77.7566 171.71 77.7459 171.824H80.0883V176.284H77.7358V176.62H80.0908V181.072H77.7358V181.407H80.0908V185.863H77.7358V186.198H80.0908V190.653H77.7358V190.988H80.0908V193.437C80.2032 193.46 80.3164 193.485 80.4304 193.511V190.988H85.0724V195.242L85.412 195.404V190.988H90.0539V195.443H85.49L86.1769 195.779H90.0539V197.733C90.1697 197.798 90.2804 197.867 90.3936 197.934V195.779H95.038V200.234H93.6467C93.7775 200.343 93.9084 200.455 94.0392 200.569H95.0456V201.488L95.3852 201.826V200.569H100.02V205.014H98.0396L98.271 205.35H100.032V208.317C100.148 208.531 100.261 208.744 100.372 208.958V205.357H105.016V209.812H100.79C100.845 209.924 100.898 210.036 100.951 210.147H105.004V214.603H102.528C102.553 214.714 102.576 214.826 102.598 214.938H105.004V218.315L105.343 218.328V214.948H109.985V218.504H110.325V214.948H114.969V218.673H115.309V214.948H119.951V218.809H120.291V214.948H124.935V218.809H125.114C125.169 218.809 125.224 218.809 125.28 218.809V214.948H126.865L126.835 214.613H125.28V210.147H126.238C126.218 210.036 126.198 209.924 126.175 209.812H125.28V205.951C125.172 205.558 125.061 205.163 124.943 204.776V205.024H120.291V200.569H123.353C123.302 200.455 123.252 200.343 123.199 200.234H120.291V195.779H120.794L120.59 195.443H120.283V194.947C120.17 194.77 120.059 194.592 119.943 194.415V195.436H115.302V190.988H117.566C117.485 190.877 117.4 190.765 117.314 190.653H115.302V188.001L114.962 187.561V190.653H110.325V186.198H113.903L113.636 185.863ZM85.0724 190.653H80.4304V186.198H85.0724V190.653ZM85.0724 185.863H80.4304V181.407H85.0724V185.863ZM85.0724 181.072H80.4304V176.62H85.0724V181.072ZM85.0724 176.284H80.4304V171.829H85.0724V176.284ZM90.0539 190.653H85.412V186.198H90.0539V190.653ZM90.0539 185.863H85.412V181.407H90.0539V185.863ZM90.0539 181.072H85.412V176.62H90.0539V181.072ZM90.0539 176.284H85.412V171.829H90.0539V176.284ZM95.038 195.443H90.3936V190.988H95.038V195.443ZM95.038 190.653H90.3936V186.198H95.038V190.653ZM95.038 185.863H90.3936V181.407H95.038V185.863ZM95.038 181.072H90.3936V176.62H95.038V181.072ZM100.02 200.234H95.3777V195.779H100.02V200.234ZM100.02 195.443H95.3777V190.988H100.02V195.443ZM100.02 190.653H95.3777V186.198H100.02V190.653ZM100.02 185.863H95.3777V181.407H100.02V185.863ZM100.02 181.072H95.3777V176.62H100.02V181.072ZM105.004 205.014H100.359V200.569H105.004V205.014ZM105.004 200.226H100.359V195.779H105.004V200.226ZM105.004 195.436H100.359V190.988H105.004V195.436ZM105.004 190.646H100.359V186.198H105.004V190.646ZM105.004 185.855H100.359V181.407H105.004V185.855ZM109.985 214.595H105.343V210.147H109.985V214.595ZM109.985 209.805H105.343V205.357H109.985V209.805ZM109.985 205.014H105.343V200.569H109.985V205.014ZM109.985 200.226H105.343V195.779H109.985V200.226ZM109.985 195.436H105.343V190.988H109.985V195.436ZM109.985 190.646H105.343V186.198H109.985V190.646ZM114.969 214.595H110.325V210.147H114.969V214.595ZM114.969 209.805H110.325V205.357H114.969V209.805ZM114.969 205.014H110.325V200.569H114.969V205.014ZM114.969 200.226H110.325V195.779H114.969V200.226ZM114.969 195.436H110.325V190.988H114.969V195.436ZM119.951 214.595H115.302V210.147H119.943L119.951 214.595ZM119.951 209.805H115.302V205.357H119.943L119.951 209.805ZM119.951 205.014H115.302V200.569H119.943L119.951 205.014ZM119.951 200.226H115.302V195.779H119.943L119.951 200.226ZM124.935 214.595H120.291V210.147H124.935V214.595ZM124.935 209.805H120.291V205.357H124.935V209.805Z" fill="#5C6DB4"/>
</g>
<g clip-path="url(#clip4_11166_16905)">
<path d="M194.972 218.726C194.972 218.726 176.429 219.17 170.235 219.17C165.041 219.17 149.439 218.726 149.439 218.726C149.169 218.728 148.901 218.677 148.651 218.575C148.4 218.474 148.172 218.324 147.98 218.134C147.788 217.945 147.634 217.719 147.529 217.47C147.424 217.221 147.369 216.954 147.367 216.684C147.367 216.684 147.116 209.208 147.034 207.163C146.69 197.988 147.367 171.835 147.367 171.835C147.375 171.292 147.597 170.775 147.985 170.395C148.374 170.016 148.896 169.806 149.439 169.811C149.439 169.811 172.6 169.071 180.325 169.059C186.06 169.059 194.972 169.811 194.972 169.811C195.242 169.808 195.51 169.859 195.76 169.96C196.011 170.062 196.239 170.211 196.431 170.401C196.624 170.59 196.777 170.816 196.882 171.064C196.987 171.313 197.042 171.58 197.044 171.85V216.684C197.042 216.954 196.987 217.221 196.882 217.47C196.777 217.719 196.624 217.945 196.431 218.134C196.239 218.324 196.011 218.474 195.761 218.575C195.51 218.677 195.242 218.728 194.972 218.726Z" fill="#78BC61"/>
<path d="M179.004 194.588V194.553C179.004 193.851 178.949 193.149 178.839 192.456V192.406C178.749 191.84 178.617 191.282 178.443 190.737C178.255 190.131 177.984 189.553 177.639 189.021C177.509 188.83 177.368 188.646 177.218 188.469L177.095 188.327C176.863 188.065 176.612 187.822 176.344 187.597L176.201 187.48C175.664 187.056 175.075 186.705 174.447 186.435H174.422L174.274 186.375L174.099 186.302C173.469 186.058 172.817 185.878 172.152 185.763L172.009 185.741C171.363 185.637 170.711 185.585 170.057 185.583H169.914C169.259 185.588 168.609 185.685 167.98 185.869L167.935 185.884L167.862 185.904H167.837C167.518 186.008 167.207 186.133 166.905 186.28L166.828 186.317L166.687 186.39L166.622 186.422C166.369 186.556 166.123 186.702 165.885 186.861L165.743 186.959C165.161 187.365 164.616 187.821 164.114 188.322C164.105 188.329 164.097 188.338 164.089 188.347C164.049 188.384 164.009 188.424 163.971 188.464L163.791 188.65L163.773 188.667L163.653 188.798C163.192 189.281 162.773 189.802 162.4 190.356L162.313 190.491C162.079 190.855 161.873 191.236 161.696 191.631C161.676 191.676 161.656 191.722 161.639 191.767L161.561 191.95V191.97C161.506 192.11 161.456 192.25 161.408 192.391C161.393 192.438 161.375 192.486 161.363 192.533C161.174 193.148 161.073 193.787 161.062 194.43C161.062 194.468 161.062 194.503 161.062 194.538V194.573C161.067 195.216 161.16 195.855 161.338 196.472C161.35 196.52 161.365 196.567 161.378 196.615C161.431 196.793 161.493 196.971 161.561 197.144C161.576 197.189 161.596 197.231 161.613 197.276L161.696 197.479V197.494C161.848 197.839 162.02 198.173 162.212 198.497C162.217 198.507 162.223 198.517 162.23 198.527L162.27 198.597L162.297 198.639C162.691 199.279 163.143 199.881 163.648 200.436C163.681 200.473 163.713 200.511 163.748 200.546L163.868 200.674C164.419 201.283 165.043 201.822 165.725 202.28L165.778 202.313L165.858 202.363C165.993 202.445 166.131 202.525 166.271 202.601C166.319 202.628 166.369 202.651 166.419 202.678L166.534 202.736H166.549C166.952 202.934 167.371 203.097 167.802 203.222L167.945 203.262C168.583 203.426 169.238 203.51 169.897 203.513H170.04C170.701 203.505 171.357 203.407 171.991 203.22L172.134 203.174C172.532 203.05 172.921 202.898 173.297 202.718L173.432 202.653L173.555 202.591L173.585 202.576C173.755 202.49 173.921 202.398 174.086 202.3L174.229 202.215C174.928 201.781 175.582 201.277 176.181 200.711L176.376 200.524L176.399 200.501C176.986 199.942 177.501 199.313 177.932 198.627C177.962 198.579 177.99 198.532 178.017 198.484C178.11 198.324 178.193 198.163 178.268 198C178.285 197.965 178.3 197.928 178.318 197.89L178.401 197.705C178.4 197.698 178.4 197.691 178.401 197.685C178.549 197.33 178.668 196.963 178.754 196.587C178.754 196.54 178.776 196.492 178.786 196.445C178.913 195.819 178.975 195.183 178.972 194.545L179.004 194.588Z" fill="#2E89EA"/>
<path d="M172 181.247L174.211 180L175.939 181.87L178.433 181.36L179.482 183.684L182.004 183.968L182.316 186.49L184.611 187.567L184.13 190.061L186 191.789L184.753 194L186 196.211L184.13 197.939L184.611 200.433L182.316 201.482L182.004 204.004L179.482 204.316L178.433 206.611L175.939 206.13L174.211 208L172 206.753L169.789 208L168.061 206.13L165.567 206.611L164.49 204.316L161.968 204.004L161.684 201.482L159.36 200.433L159.87 197.939L158 196.211L159.247 194L158 191.789L159.87 190.061L159.36 187.567L161.684 186.49L161.968 183.968L164.49 183.684L165.567 181.36L168.061 181.87L169.789 180L172 181.247Z" fill="#006FE6"/>
<path d="M176.019 190.367L170.186 196.202L167.755 193.794C167.702 193.741 167.639 193.699 167.57 193.67C167.501 193.642 167.427 193.627 167.352 193.627C167.278 193.627 167.203 193.642 167.134 193.67C167.065 193.699 167.003 193.741 166.95 193.794C166.844 193.901 166.785 194.044 166.785 194.194C166.785 194.343 166.844 194.487 166.95 194.593L169.784 197.426C169.895 197.524 170.039 197.575 170.186 197.568C170.261 197.568 170.335 197.554 170.404 197.526C170.473 197.497 170.536 197.456 170.589 197.403L176.824 191.171C176.93 191.064 176.99 190.92 176.99 190.769C176.99 190.618 176.93 190.473 176.824 190.367C176.717 190.26 176.572 190.2 176.421 190.2C176.27 190.2 176.126 190.26 176.019 190.367Z" fill="white"/>
</g>
<g clip-path="url(#clip5_11166_16905)">
<path d="M72.6311 120.58C72.6311 120.58 63.9614 119.835 58.3732 119.835C50.8554 119.847 28.3068 120.58 28.3068 120.58C28.0418 120.579 27.7793 120.631 27.5344 120.733C27.2895 120.834 27.0669 120.983 26.8795 121.171C26.692 121.359 26.5432 121.582 26.4417 121.827C26.3402 122.072 26.288 122.336 26.288 122.601C26.288 122.601 25.6217 148.515 25.9635 157.609C26.0378 159.628 26.288 167.046 26.288 167.046C26.288 167.583 26.5007 168.098 26.8793 168.477C27.2579 168.857 27.7714 169.07 28.3068 169.07C28.3068 169.07 43.4961 169.502 48.5616 169.502C54.5808 169.502 72.6311 169.063 72.6311 169.063C72.8962 169.063 73.1587 169.01 73.4037 168.909C73.6486 168.807 73.8711 168.658 74.0586 168.47C74.2461 168.282 74.3948 168.059 74.4962 167.813C74.5977 167.568 74.6499 167.304 74.6499 167.039V122.601C74.6499 122.336 74.5977 122.072 74.4962 121.827C74.3947 121.582 74.2459 121.359 74.0584 121.171C73.871 120.983 73.6484 120.834 73.4035 120.733C73.1586 120.631 72.8961 120.579 72.6311 120.58ZM66.5153 144.773V159.569C66.5153 159.746 66.4805 159.921 66.4129 160.085C66.3453 160.248 66.2462 160.397 66.1213 160.522C65.9964 160.647 65.8481 160.747 65.685 160.814C65.5218 160.882 65.3469 160.917 65.1702 160.917C65.1702 160.917 53.1392 161.218 49.1289 161.21C45.7527 161.21 35.629 160.917 35.629 160.917C35.2735 160.915 34.9333 160.772 34.6827 160.52C34.432 160.267 34.2913 159.925 34.2914 159.569C34.2914 159.569 34.1229 154.629 34.0734 153.283C33.8504 147.221 34.2914 129.952 34.2914 129.952C34.2914 129.594 34.4331 129.251 34.6853 128.998C34.9375 128.746 35.2797 128.603 35.6364 128.603C35.6364 128.603 50.6646 128.107 55.6757 128.107C59.3913 128.107 65.1777 128.603 65.1777 128.603C65.5344 128.603 65.8765 128.746 66.1287 128.998C66.381 129.251 66.5227 129.594 66.5227 129.952L66.5153 144.773Z" fill="#ED6B63"/>
<path d="M57.5757 136.801C57.5757 136.801 54.7419 136.553 52.9188 136.553C50.4641 136.553 43.0998 136.801 43.0998 136.801C43.012 136.8 42.9249 136.816 42.8434 136.849C42.762 136.882 42.688 136.931 42.6257 136.993C42.5634 137.055 42.5141 137.129 42.4806 137.21C42.4472 137.291 42.4303 137.379 42.431 137.467C42.431 137.467 42.2155 145.93 42.3245 148.89C42.3492 149.551 42.431 151.969 42.431 151.969C42.431 152.145 42.5004 152.313 42.624 152.437C42.7475 152.56 42.9151 152.63 43.0899 152.63C43.0899 152.63 48.044 152.772 49.7061 152.774C51.6704 152.774 57.5658 152.63 57.5658 152.63C57.7405 152.63 57.9081 152.56 58.0317 152.437C58.1552 152.313 58.2246 152.145 58.2246 151.969V137.467C58.226 137.292 58.1585 137.124 58.0369 137C57.9154 136.875 57.7496 136.804 57.5757 136.801Z" fill="#ED6B63"/>
</g>
<g clip-path="url(#clip6_11166_16905)">
<path d="M195.715 36.8048C195.59 36.4853 195.465 36.1682 195.319 35.8536C194.896 34.9101 194.415 33.9922 193.879 33.1048L193.646 32.7218C192.533 30.9587 191.252 29.3017 189.82 27.7731C189.745 27.6901 189.669 27.6096 189.592 27.5292C189.481 27.4096 189.369 27.2853 189.256 27.1804C187.699 25.5578 185.946 24.1254 184.034 22.9145L183.639 22.6706C183.015 22.2999 182.386 21.9535 181.719 21.6414C180.586 21.1012 179.407 20.6596 178.194 20.3218L177.801 20.2145C176.023 19.7567 174.193 19.5166 172.354 19.4999L172.06 19.4999L171.955 19.4999C169.973 19.5184 168.005 19.8217 166.115 20.3999C161.552 21.7682 157.451 24.5462 154.223 27.6218C152.525 29.1936 151.043 30.9726 149.814 32.9145L149.698 33.1023C147.809 36.2657 147 39.6511 147 43.8901L197.111 43.8901C197.097 41.4649 196.624 39.063 195.715 36.8048Z" fill="#FFA940"/>
<path d="M184.012 26.395C183.661 26.5535 183.26 26.7755 182.814 27.0072C181.038 27.9609 178.602 29.256 176.39 28.6048C174.238 27.9633 172.754 29.2779 171.186 30.6682C170.558 31.251 169.888 31.789 169.181 32.2779C167.833 33.1584 165.791 33.6316 164.012 34.0462C162.494 34.3975 161.184 34.6999 160.562 35.195C159.786 35.8145 158.901 36.7975 159.099 37.9755C159.312 39.2511 160.77 40.3926 163.431 41.3706C166.591 42.5316 168.51 42.3194 169.911 42.1657C171.311 42.0121 172.213 41.9218 173.539 43.1414C173.809 43.4023 174.06 43.6462 174.293 43.8901L174.897 43.8901C174.581 43.5535 174.235 43.2023 173.844 42.8389C172.368 41.4633 171.261 41.5853 169.86 41.7389C168.46 41.8926 166.648 42.095 163.597 40.9706C161.091 40.0511 159.728 39.0194 159.54 37.9072C159.377 36.9316 160.161 36.0731 160.848 35.5267C161.392 35.095 162.717 34.795 164.123 34.4633C165.949 34.0389 168.021 33.5609 169.434 32.634C170.159 32.1329 170.846 31.5819 171.489 30.9853C173.02 29.6218 174.348 28.4462 176.26 29.0121C178.652 29.7267 181.18 28.3706 183.025 27.3828C183.453 27.1389 183.859 26.934 184.197 26.7804C185.254 26.2926 186.116 27.0706 187.204 28.0487C187.747 28.561 188.334 29.0277 188.958 29.4438C190.922 30.6828 192.215 31.4999 192.668 33.0243C192.828 33.6313 192.956 34.246 193.052 34.8657C193.287 36.2267 193.553 37.7731 194.274 38.9438C195.071 40.2316 194.605 40.9633 194.247 41.5536C194.167 41.6779 194.094 41.8065 194.029 41.9389C193.869 42.2779 193.823 43.0072 193.791 43.8901L194.234 43.8901C194.262 43.1194 194.307 42.3779 194.43 42.1145C194.487 41.9975 194.553 41.8842 194.625 41.7755C195.009 41.1657 195.587 40.2316 194.653 38.7243C193.974 37.6243 193.716 36.1218 193.485 34.795C193.392 34.162 193.264 33.5343 193.102 32.9145C192.601 31.234 191.183 30.334 189.206 29.0901C188.603 28.6881 188.037 28.236 187.514 27.7389C186.643 26.9584 185.808 26.2096 184.851 26.2096C184.561 26.2099 184.274 26.2732 184.012 26.395Z" fill="#D18B35"/>
<path d="M191.278 38.061C190.97 37.3488 190.677 36.678 190.647 35.8097C190.596 34.1341 189.91 33.6317 188.091 32.278L187.8 32.0585C187.299 31.6805 186.851 31.2878 186.455 30.9414C185.585 30.1634 184.834 29.5 183.972 29.5C183.602 29.5091 183.242 29.6208 182.934 29.8219C181.401 30.7634 180.041 31.1 177.548 31.1561C175.591 31.2 174.791 31.8463 173.664 32.7414C173.301 33.0317 172.89 33.361 172.394 33.7024C171.391 34.3975 169.81 34.561 168.427 34.7024C167.155 34.8341 165.954 34.9463 165.303 35.478C164.652 36.0097 163.835 36.7634 163.998 37.661C164.143 38.478 165.07 39.1707 166.831 39.7756C168.036 40.2158 169.34 40.3337 170.607 40.1171C171.925 39.9561 173.065 39.8146 175.646 41.4317C179.459 43.8219 181.446 43.4219 183.368 43.0317C183.806 42.9439 184.22 42.8585 184.661 42.8073C185.931 42.6561 187.008 42.9195 187.875 43.1317C188.627 43.3146 189.216 43.461 189.629 43.2439C189.845 43.1585 192.35 42.0927 191.987 40.1634C191.836 39.4381 191.598 38.7325 191.278 38.061ZM189.464 42.8512L189.444 42.8512C189.344 42.8973 189.234 42.9191 189.123 42.9146C188.737 42.8857 188.354 42.8162 187.983 42.7073C187.129 42.4975 185.959 42.2195 184.606 42.3707C184.15 42.4268 183.706 42.5146 183.278 42.6146C181.444 42.9854 179.547 43.3707 175.884 41.0756C173.168 39.3683 171.898 39.5293 170.552 39.6975C169.352 39.9057 168.117 39.7945 166.977 39.3756C165.403 38.8341 164.546 38.2341 164.431 37.5902C164.341 37.0853 164.717 36.5024 165.581 35.8146C166.132 35.3756 167.27 35.2585 168.475 35.1341C169.911 34.9853 171.542 34.8195 172.649 34.0585C173.15 33.7073 173.576 33.3732 173.945 33.0829C175.035 32.2122 175.754 31.6366 177.558 31.5951C180.141 31.5366 181.566 31.1829 183.17 30.1951C184.172 29.5829 184.851 30.1122 186.177 31.2683C186.578 31.6195 187.034 32.0171 187.55 32.4049L187.84 32.6171C189.622 33.9512 190.16 34.3536 190.213 35.8244C190.246 36.7732 190.554 37.4805 190.88 38.2293C191.182 38.8698 191.409 39.5415 191.556 40.2317C191.869 41.8707 189.489 42.8414 189.464 42.8512Z" fill="#D18B35"/>
<path d="M183.581 32.6096C183.32 32.6053 183.062 32.6631 182.829 32.7779C181.143 33.6266 179.407 34.0901 178.302 33.9803C177.455 33.8949 176.024 34.4974 175.451 35.3949C175.294 35.6149 175.208 35.8755 175.205 36.1432C175.201 36.4109 175.28 36.6735 175.43 36.8974C175.618 37.1997 175.79 37.5116 175.944 37.8315C176.433 38.8071 176.896 39.7145 178.577 39.9023C179.317 39.9778 180.064 39.9704 180.802 39.8803C181.569 39.8096 182.231 39.7462 183.125 40.0364C183.431 40.134 183.736 40.2413 184.034 40.3462C185.428 40.834 186.633 41.2608 187.445 40.7681C187.63 40.7047 188.582 40.3388 188.765 39.4462L188.805 39.2535C188.98 38.4291 189.198 37.4023 188.537 36.2535C187.923 35.1803 185.435 32.6096 183.581 32.6096ZM188.379 39.1657L188.337 39.3632C188.191 40.0754 187.304 40.3632 187.287 40.3681L187.234 40.3925C186.608 40.7925 185.433 40.3803 184.187 39.9437C183.887 39.8364 183.578 39.7291 183.27 39.6291C182.286 39.3096 181.546 39.3852 180.765 39.4535C180.056 39.5408 179.34 39.5482 178.63 39.4754C177.189 39.3169 176.836 38.6145 176.345 37.6413C176.184 37.307 176.005 36.9814 175.809 36.6657C175.703 36.5091 175.649 36.3251 175.653 36.1379C175.657 35.9507 175.719 35.769 175.831 35.6169C176.3 34.8852 177.563 34.3315 178.262 34.3974C179.447 34.512 181.268 34.034 183.037 33.1486C184.541 32.3876 187.48 35.2803 188.156 36.4535C188.737 37.473 188.547 38.373 188.379 39.1657Z" fill="#D18B35"/>
<path d="M186.272 36.1976C185.315 35.3756 183.726 34.7927 182.639 34.7927C182.42 34.7892 182.203 34.8205 181.995 34.8854C181.851 34.9241 181.721 35.002 181.621 35.11C181.52 35.218 181.454 35.3516 181.429 35.4951C181.341 36.2132 181.545 36.9363 181.997 37.5098C182.193 37.7755 182.442 37.9992 182.73 38.1671C183.018 38.3349 183.338 38.4433 183.671 38.4854C184.511 38.6074 185.37 38.4949 186.147 38.161C186.284 38.1244 186.841 37.9488 186.958 37.4903C187.056 37.1049 186.826 36.6707 186.272 36.1976ZM186.522 37.3781C186.467 37.5927 186.132 37.7146 186.006 37.7439L185.951 37.7634C185.249 38.0668 184.473 38.1675 183.714 38.0537C183.441 38.0193 183.178 37.9305 182.942 37.7928C182.705 37.6552 182.501 37.4717 182.341 37.2537C181.96 36.7728 181.786 36.1669 181.855 35.5634C181.867 35.4829 181.91 35.3683 182.133 35.2903C182.902 35.022 184.824 35.5342 185.969 36.5098C186.387 36.8683 186.588 37.1732 186.532 37.3781L186.522 37.3781Z" fill="#D18B35"/>
<path d="M154.562 30.9047C155.674 30.8559 157.353 30.7779 161.003 30.1316C164.819 29.4584 166.323 27.3242 167.648 25.4438C169.049 23.4657 170.249 21.7584 173.847 22.1828C177.7 22.6364 179.823 22.6706 181.414 21.5047C181.266 21.4389 181.12 21.3706 180.973 21.3072C179.492 22.2584 177.5 22.1803 173.899 21.7559C170.033 21.2998 168.7 23.195 167.285 25.1998C165.944 27.1023 164.559 29.0681 160.926 29.7096C157.293 30.3511 155.642 30.4267 154.542 30.4755C153.362 30.5291 152.73 30.5584 150.989 31.2072C150.828 31.4194 150.673 31.6316 150.523 31.8462L150.773 31.7462C152.74 30.9877 153.311 30.9633 154.562 30.9047Z" fill="#D18B35"/>
<path d="M148.568 42.1828C150.37 42.1633 152.409 42.1365 155.614 43.4487C156.012 43.6113 156.397 43.7584 156.772 43.8901L158.15 43.8901C157.349 43.6496 156.561 43.3695 155.789 43.0511C152.497 41.695 150.405 41.7292 148.563 41.7511C148.062 41.7511 147.561 41.7511 147.078 41.7389C147.078 41.8804 147.058 42.0243 147.05 42.1682C147.551 42.1828 148.05 42.1828 148.568 42.1828Z" fill="#D18B35"/>
<path d="M197.083 42.9145C197.068 42.6511 197.048 42.3926 197.023 42.134C196.928 42.3072 196.825 42.4828 196.717 42.6706C196.478 43.0655 196.261 43.4726 196.066 43.8901L196.547 43.8901C196.717 43.5365 196.903 43.217 197.083 42.9145Z" fill="#D18B35"/>
<path d="M158.122 33.2414C159.53 33.1365 161.129 33.017 162.832 32.8389C166.325 32.4755 168.117 30.5755 169.695 28.8999C171.126 27.3828 172.359 26.0706 174.561 26.1779C177.788 26.3316 179.432 25.6438 181.176 24.917C182.122 24.4964 183.102 24.1529 184.107 23.8901C184.474 23.7938 184.85 23.735 185.229 23.7145C185.049 23.5877 184.869 23.4706 184.686 23.3365C184.455 23.3705 184.226 23.4161 183.999 23.4731C182.969 23.743 181.964 24.0946 180.993 24.5243C179.299 25.2316 177.698 25.8999 174.576 25.7438C172.173 25.6267 170.818 27.0755 169.367 28.6048C167.839 30.2243 166.11 32.0609 162.78 32.4096C161.084 32.5853 159.49 32.7048 158.082 32.8072C153.97 33.1121 150.984 33.3365 148.862 34.6584C148.746 34.8991 148.636 35.143 148.531 35.3901L149.004 35.0828C151.036 33.7657 154.015 33.5438 158.122 33.2414Z" fill="#D18B35"/>
<path d="M151.41 40.2926C153.792 40.2755 156.045 40.2609 158.197 41.4145C160.019 42.3901 161.705 43.2999 163.444 43.8901L165.04 43.8901C162.805 43.4023 160.715 42.2804 158.408 41.0389C156.153 39.8194 153.848 39.8462 151.405 39.8633C150.038 39.9013 148.67 39.8499 147.311 39.7096C147.288 39.8511 147.265 39.9901 147.245 40.134C148.628 40.2782 150.019 40.3311 151.41 40.2926Z" fill="#D18B35"/>
<path d="M157.651 36.0853C158.187 35.6487 158.513 35.3877 158.536 35.0536C158.539 34.9663 158.524 34.8792 158.491 34.7981C158.458 34.717 158.407 34.6436 158.343 34.5828C158.215 34.4463 157.872 34.3877 157.391 34.3877C155.682 34.3877 152.247 35.1194 150.703 35.6243C148.676 36.2755 148.654 37.1999 148.699 37.4682C148.732 37.6708 148.84 37.855 149.001 37.9871C149.163 38.1191 149.367 38.1903 149.578 38.1877C150.418 38.2097 156.787 38.6536 156.844 38.6584L156.909 38.6584L156.967 38.6292C157.391 38.3999 157.218 37.9706 157.075 37.6536C156.867 37.1658 156.762 36.817 157.18 36.4633L157.651 36.0853ZM156.899 36.1438C156.21 36.7267 156.491 37.3853 156.674 37.8219C156.782 38.078 156.812 38.1755 156.792 38.2243C155.975 38.1658 150.393 37.7804 149.588 37.7584C149.481 37.7635 149.376 37.7304 149.293 37.6652C149.209 37.6001 149.153 37.5075 149.135 37.4048C149.08 37.0438 149.496 36.4658 150.849 36.0316C153.467 35.1877 157.614 34.5682 158.019 34.8706C158.105 34.9633 158.102 35.0072 158.102 35.0243C158.102 35.1755 157.759 35.4438 157.373 35.756L156.899 36.1438Z" fill="#D18B35"/>
<path d="M154.685 35.8584C154.619 35.8407 154.552 35.8316 154.484 35.8315C153.757 35.8315 152.587 36.6413 152.202 36.9535C151.996 37.1218 151.928 37.2828 152.001 37.4413C152.121 37.6852 152.517 37.7681 154.256 37.4632L154.361 37.4462C154.492 37.4391 154.619 37.4028 154.733 37.3402C154.847 37.2776 154.944 37.1904 155.018 37.0852C155.161 36.8632 155.163 36.5657 155.03 36.1754C155.004 36.0989 154.959 36.0298 154.898 35.9745C154.838 35.9191 154.765 35.8792 154.685 35.8584ZM154.642 36.8584C154.601 36.9061 154.55 36.9447 154.493 36.9716C154.435 36.9985 154.372 37.0132 154.309 37.0145L154.186 37.034C153.649 37.1442 153.103 37.2087 152.555 37.2267C153.306 36.6437 154.254 36.1828 154.559 36.2706C154.594 36.2706 154.599 36.2901 154.607 36.312C154.65 36.396 154.676 36.4878 154.682 36.5817C154.688 36.6756 154.674 36.7697 154.642 36.8584Z" fill="#D18B35"/>
<path d="M161.678 25.7877C163.043 23.6828 167.272 21.1535 172.101 19.4999L171.955 19.4999C171.527 19.4999 171.101 19.5218 170.675 19.5511C166.26 21.2267 162.617 23.534 161.304 25.556C160.73 26.4389 158.638 27.1852 155.253 27.7072C154.81 27.7755 154.371 27.8365 153.948 27.8901C153.778 28.056 153.607 28.2218 153.447 28.3779C156.486 28.0365 160.703 27.2901 161.678 25.7877Z" fill="#D18B35"/>
</g>
<g clip-path="url(#clip7_11166_16905)">
<path d="M49.3037 94.8512C49.0933 94.8512 48.8853 94.8736 48.6774 94.8885C47.1293 95.0051 45.5995 95.295 44.1173 95.7527C39.5547 97.1458 35.4531 99.9744 32.226 103.106C31.9579 103.354 31.7023 103.625 31.4517 103.883C30.5681 104.786 29.7453 105.745 28.9888 106.754C28.5604 107.33 28.167 107.909 27.8137 108.492L27.6984 108.684C27.3928 109.205 27.1172 109.734 26.8666 110.27C26.7514 110.515 26.6411 110.764 26.5359 111.015C25.9555 112.427 25.5451 113.902 25.3132 115.409C25.2906 115.553 25.2681 115.694 25.248 115.841C25.1729 116.372 25.1177 116.916 25.0776 117.475C25.0776 117.562 25.0651 117.651 25.0601 117.738C25.0225 118.361 25 119.002 25 119.665L75.1108 119.665C75.0966 117.197 74.6235 114.752 73.7153 112.453C73.59 112.128 73.4647 111.805 73.3194 111.485C72.896 110.524 72.4149 109.59 71.8787 108.686L71.6457 108.296C70.5333 106.501 69.2523 104.814 67.8197 103.257C67.7445 103.173 67.6694 103.091 67.5917 103.009C67.4815 102.887 67.3687 102.761 67.256 102.654C65.875 101.194 64.3433 99.8826 62.6859 98.7402C62.4704 98.5961 62.2524 98.4521 62.0344 98.313L61.6385 98.0647C61.0147 97.6872 60.3858 97.3346 59.7193 97.0167L59.4161 96.8776C59.2683 96.8106 59.123 96.741 58.9751 96.6765C58.0729 96.2828 57.1445 95.9509 56.1965 95.6831L55.8031 95.5739C54.0248 95.1033 52.1941 94.8547 50.3536 94.8338L50.103 94.8338L49.9577 94.8338C49.7372 94.8338 49.5192 94.8338 49.3037 94.8512Z" fill="#78BC61"/>
<path d="M36.1446 94.8337L75.1108 94.8337C75.0969 92.3644 74.6238 89.9188 73.7153 87.6195C73.59 87.2942 73.4647 86.9714 73.3194 86.651C72.896 85.6904 72.4149 84.7558 71.8787 83.8523L71.6457 83.4624C70.5333 81.6671 69.2523 79.9801 67.8197 78.4236C67.7445 78.3392 67.6694 78.2572 67.5917 78.1753C67.4815 78.0536 67.3687 77.927 67.256 77.8202C65.875 76.3606 64.3433 75.0488 62.6859 73.9064C62.4704 73.7623 62.2524 73.6183 62.0344 73.4792L61.6385 73.2309C61.0147 72.8534 60.3858 72.5008 59.7193 72.1829L59.4161 72.0438C59.2683 71.9768 59.123 71.9073 58.9751 71.8427C58.0729 71.449 57.1445 71.1171 56.1965 70.8493L55.8031 70.7401C54.0248 70.2695 52.1941 70.0209 50.3536 70L50.103 70L49.9577 70C49.7397 70 49.5217 70 49.3063 70.0149C49.0908 70.0298 48.8878 70.0373 48.6799 70.0522C47.1318 70.1689 45.6021 70.4588 44.1198 70.9164C39.5572 72.3096 35.4556 75.1381 32.2285 78.2697C31.9604 78.5304 31.7048 78.7887 31.4543 79.0469C30.5732 79.9487 29.753 80.9068 28.9988 81.9152C28.5704 82.4914 28.177 83.07 27.8237 83.6536L27.7085 83.8448C27.4028 84.3663 27.1272 84.8953 26.8766 85.4317C26.7614 85.6784 26.6511 85.9267 26.5459 86.1767C25.9656 87.5884 25.5552 89.0629 25.3232 90.5698C25.3006 90.7138 25.2781 90.8554 25.258 91.0019C25.1829 91.5333 25.1278 92.0772 25.0877 92.636C25.0877 92.7229 25.0751 92.8123 25.0701 92.8992C25.0325 93.5225 25.01 94.1632 25.01 94.8263L36.1446 94.8263L36.1446 94.8337Z" fill="#78BC61"/>
</g>
<g clip-path="url(#clip8_11166_16905)">
<path d="M198.964 169.059C198.714 169.055 198.465 169.101 198.232 169.194C197.999 169.288 197.787 169.428 197.609 169.605C197.43 169.782 197.288 169.993 197.191 170.226C197.094 170.459 197.044 170.71 197.044 170.962V190.999C197.048 191.459 197.215 191.903 197.516 192.249C197.817 192.595 198.231 192.821 198.683 192.885C201.932 193.385 205.009 195.206 207.8 196.559C212.368 198.778 216.158 202.347 218.665 206.792C220.463 209.983 222.022 213.174 222.39 216.931C222.433 217.39 222.641 217.818 222.974 218.134C223.307 218.451 223.743 218.635 224.2 218.651L238.266 219.152H244.824C245.08 219.152 245.334 219.098 245.569 218.996C245.804 218.894 246.016 218.745 246.192 218.557C246.368 218.37 246.505 218.149 246.594 217.906C246.683 217.664 246.722 217.406 246.709 217.149C246.549 212.902 245.85 208.694 244.631 204.626C242.95 199.013 239.94 194.157 236.547 189.564C232.246 183.743 227.52 177.444 221.151 173.958C214.639 170.409 206.881 169.217 198.964 169.059Z" fill="#ED6B63"/>
<path d="M233.254 185.226H229.917V181.218L229.577 180.853V185.226H224.89V180.635H229.361C229.251 180.517 229.144 180.402 229.035 180.289H224.89V176.465L224.548 176.197V180.289H219.864V175.698H223.865C223.699 175.58 223.534 175.465 223.368 175.353H219.864V173.316L219.521 173.151V175.358H214.838V171.328L214.495 171.223V175.353H209.811V170.762H212.844C212.367 170.638 211.887 170.523 211.403 170.416H209.811V170.088L209.461 170.026V170.416H204.788V169.387L204.445 169.354V170.416H199.761V169.079L199.419 169.071V170.416H197.124C197.087 170.529 197.06 170.644 197.044 170.762H199.419V175.353H197.044V175.698H199.419V180.289H197.044V180.635H199.419V185.226H197.044V185.571H199.419V190.162H197.044V190.508H199.419V193.03L199.761 193.107V190.508H204.445V194.891L204.788 195.058V190.508H209.461V195.106H204.865L205.56 195.452H209.461V197.455C209.578 197.523 209.69 197.593 209.804 197.663V195.442H214.495V200.032H213.092C213.226 200.145 213.358 200.26 213.489 200.378H214.483V201.325C214.599 201.44 214.714 201.555 214.825 201.673V200.378H219.521V204.969H217.522C217.602 205.084 217.679 205.197 217.756 205.315H219.521V208.363C219.637 208.583 219.752 208.803 219.864 209.024V205.317H224.548V209.908H220.299C220.353 210.023 220.405 210.138 220.458 210.253H224.548V214.844H222.064C222.089 214.957 222.112 215.075 222.134 215.19H224.56V218.671H224.903V215.19H229.577V218.854L229.919 218.867V215.19H234.6V219.037H234.943V215.19H239.627V219.17H239.969V215.19H244.651V219.17H244.824C244.882 219.17 244.936 219.17 244.993 219.17V215.19H246.59L246.56 214.844H244.993V210.253H245.967C245.947 210.138 245.925 210.023 245.902 209.908H245.001V205.928C244.892 205.522 244.777 205.117 244.658 204.716V204.966H239.967V200.381H243.049C242.999 200.263 242.945 200.15 242.892 200.035H239.967V195.444H240.484L240.277 195.098H239.967V194.598C239.853 194.415 239.741 194.229 239.624 194.049V195.106H234.941V190.508H237.218L236.97 190.162H234.941V187.43C234.829 187.277 234.715 187.127 234.598 186.974V190.162H229.917V185.571H233.523L233.254 185.226ZM204.445 190.162H199.761V185.571H204.445V190.162ZM204.445 185.226H199.761V180.635H204.445V185.226ZM204.445 180.289H199.761V175.698H204.445V180.289ZM204.445 175.353H199.761V170.762H204.445V175.353ZM209.461 190.162H204.788V185.571H209.461V190.162ZM209.461 185.226H204.788V180.635H209.461V185.226ZM209.461 180.289H204.788V175.698H209.461V180.289ZM209.461 175.353H204.788V170.762H209.461V175.353ZM214.495 195.106H209.811V190.508H214.495V195.106ZM214.495 190.17H209.811V185.571H214.495V190.17ZM214.495 185.233H209.811V180.635H214.495V185.233ZM214.495 180.297H209.811V175.698H214.495V180.297ZM219.521 200.042H214.838V195.444H219.521V200.042ZM219.521 195.106H214.838V190.508H219.521V195.106ZM219.521 190.17H214.838V185.571H219.521V190.17ZM219.521 185.233H214.838V180.635H219.521V185.233ZM219.521 180.297H214.838V175.698H219.521V180.297ZM224.548 204.979H219.864V200.381H224.548V204.979ZM224.548 200.042H219.864V195.444H224.548V200.042ZM224.548 195.106H219.864V190.508H224.548V195.106ZM224.548 190.17H219.864V185.571H224.548V190.17ZM224.548 185.233H219.864V180.635H224.548V185.233ZM229.577 214.844H224.89V210.253H229.577V214.844ZM229.577 209.908H224.89V205.317H229.577V209.908ZM229.577 204.971H224.89V200.381H229.577V204.971ZM229.577 200.035H224.89V195.444H229.577V200.035ZM229.577 195.106H224.89V190.508H229.577V195.106ZM229.577 190.17H224.89V185.571H229.577V190.17ZM234.6 214.852H229.917V210.253H234.598L234.6 214.852ZM234.6 209.915H229.917V205.317H234.598L234.6 209.915ZM234.6 204.979H229.917V200.381H234.598L234.6 204.979ZM234.6 200.042H229.917V195.444H234.598L234.6 200.042ZM234.6 195.106H229.917V190.508H234.598L234.6 195.106ZM239.627 214.852H234.941V210.253H239.624L239.627 214.852ZM239.627 209.915H234.941V205.317H239.624L239.627 209.915ZM239.627 204.979H234.941V200.381H239.624L239.627 204.979ZM239.627 200.042H234.941V195.444H239.624L239.627 200.042ZM244.653 214.852H239.967V210.253H244.651L244.653 214.852ZM244.653 209.915H239.967V205.317H244.651L244.653 209.915Z" fill="#E84136"/>
</g>
<g clip-path="url(#clip9_11166_16905)">
<path d="M80.4196 120C80.1691 119.996 79.9202 120.042 79.6875 120.135C79.4547 120.229 79.2429 120.369 79.0642 120.546C78.8855 120.723 78.7436 120.934 78.6467 121.167C78.5498 121.401 78.5 121.651 78.5 121.903V141.94C78.5034 142.4 78.6708 142.844 78.9717 143.19C79.2726 143.536 79.6869 143.762 80.139 143.826C83.3873 144.327 86.4642 146.147 89.2555 147.5C93.8235 149.719 97.6132 153.289 100.12 157.733C101.918 160.924 103.478 164.115 103.845 167.872C103.889 168.331 104.097 168.759 104.43 169.076C104.763 169.392 105.198 169.576 105.656 169.592L119.721 170.093H126.28C126.536 170.093 126.789 170.04 127.024 169.937C127.259 169.835 127.472 169.686 127.648 169.498C127.824 169.311 127.961 169.09 128.05 168.848C128.138 168.605 128.178 168.348 128.165 168.09C128.004 163.843 127.306 159.635 126.086 155.567C124.405 149.954 121.395 145.098 118.003 140.505C113.702 134.684 108.976 128.385 102.606 124.899C96.0947 121.35 88.3366 120.158 80.4196 120Z" fill="#10C476"/>
<path d="M114.71 136.167H111.372V132.159L111.032 131.794V136.167H106.346V131.576H110.816C110.707 131.458 110.6 131.343 110.491 131.23H106.346V127.406L106.003 127.138V131.23H101.32V126.639H105.32C105.155 126.521 104.989 126.406 104.824 126.294H101.32V124.258L100.977 124.092V126.299H96.2933V122.269L95.9506 122.164V126.294H91.267V121.703H94.2992C93.8224 121.579 93.3423 121.464 92.8588 121.357H91.267V121.029L90.9169 120.967V121.357H86.2431V120.328L85.9004 120.295V121.357H81.2168V120.02L80.8741 120.012V121.357H78.5795C78.5425 121.47 78.5159 121.586 78.5 121.703H80.8741V126.294H78.5V126.639H80.8741V131.23H78.5V131.576H80.8741V136.167H78.5V136.512H80.8741V141.103H78.5V141.449H80.8741V143.971L81.2168 144.049V141.449H85.9004V145.832L86.2431 146V141.449H90.9169V146.047H86.3201L87.0155 146.393H90.9169V148.396C91.0336 148.464 91.1453 148.534 91.2596 148.604V146.383H95.9506V150.974H94.5475C94.6816 151.086 94.8133 151.202 94.9449 151.319H95.9382V152.266C96.0549 152.381 96.1692 152.496 96.2809 152.614V151.319H100.977V155.91H98.9779C99.0573 156.025 99.1343 156.138 99.2113 156.256H100.977V159.304C101.093 159.524 101.207 159.744 101.32 159.965V156.258H106.003V160.849H101.754C101.809 160.964 101.861 161.079 101.913 161.195H106.003V165.785H103.52C103.545 165.898 103.567 166.016 103.589 166.131H106.016V169.612H106.358V166.131H111.032V169.795L111.375 169.808V166.131H116.056V169.978H116.399V166.131H121.082V170.111H121.425V166.131H126.106V170.111H126.28C126.337 170.111 126.392 170.111 126.449 170.111V166.131H128.046L128.016 165.785H126.449V161.195H127.422C127.403 161.079 127.38 160.964 127.358 160.849H126.456V156.869C126.347 156.464 126.233 156.058 126.114 155.657V155.908H121.423V151.322H124.504C124.455 151.204 124.4 151.091 124.348 150.976H121.423V146.385H121.939L121.733 146.04H121.423V145.539C121.308 145.356 121.197 145.171 121.08 144.99V146.047H116.396V141.449H118.673L118.425 141.103H116.396V138.371C116.284 138.218 116.17 138.068 116.054 137.915V141.103H111.372V136.512H114.978L114.71 136.167ZM85.9004 141.103H81.2168V136.512H85.9004V141.103ZM85.9004 136.167H81.2168V131.576H85.9004V136.167ZM85.9004 131.23H81.2168V126.639H85.9004V131.23ZM85.9004 126.294H81.2168V121.703H85.9004V126.294ZM90.9169 141.103H86.2431V136.512H90.9169V141.103ZM90.9169 136.167H86.2431V131.576H90.9169V136.167ZM90.9169 131.23H86.2431V126.639H90.9169V131.23ZM90.9169 126.294H86.2431V121.703H90.9169V126.294ZM95.9506 146.047H91.267V141.449H95.9506V146.047ZM95.9506 141.111H91.267V136.512H95.9506V141.111ZM95.9506 136.174H91.267V131.576H95.9506V136.174ZM95.9506 131.238H91.267V126.639H95.9506V131.238ZM100.977 150.984H96.2933V146.385H100.977V150.984ZM100.977 146.047H96.2933V141.449H100.977V146.047ZM100.977 141.111H96.2933V136.512H100.977V141.111ZM100.977 136.174H96.2933V131.576H100.977V136.174ZM100.977 131.238H96.2933V126.639H100.977V131.238ZM106.003 155.92H101.32V151.322H106.003V155.92ZM106.003 150.984H101.32V146.385H106.003V150.984ZM106.003 146.047H101.32V141.449H106.003V146.047ZM106.003 141.111H101.32V136.512H106.003V141.111ZM106.003 136.174H101.32V131.576H106.003V136.174ZM111.032 165.785H106.346V161.195H111.032V165.785ZM111.032 160.849H106.346V156.258H111.032V160.849ZM111.032 155.913H106.346V151.322H111.032V155.913ZM111.032 150.976H106.346V146.385H111.032V150.976ZM111.032 146.047H106.346V141.449H111.032V146.047ZM111.032 141.111H106.346V136.512H111.032V141.111ZM116.056 165.793H111.372V161.195H116.054L116.056 165.793ZM116.056 160.857H111.372V156.258H116.054L116.056 160.857ZM116.056 155.92H111.372V151.322H116.054L116.056 155.92ZM116.056 150.984H111.372V146.385H116.054L116.056 150.984ZM116.056 146.047H111.372V141.449H116.054L116.056 146.047ZM121.082 165.793H116.396V161.195H121.08L121.082 165.793ZM121.082 160.857H116.396V156.258H121.08L121.082 160.857ZM121.082 155.92H116.396V151.322H121.08L121.082 155.92ZM121.082 150.984H116.396V146.385H121.08L121.082 150.984ZM126.109 165.793H121.423V161.195H126.106L126.109 165.793ZM126.109 160.857H121.423V156.258H126.106L126.109 160.857Z" fill="#0EAD69"/>
</g>
<g clip-path="url(#clip10_11166_16905)">
<path d="M129.212 129.244L136.949 119.34L143.882 109.433C146.055 106.328 147.122 102.304 146.332 98.8963C145.654 95.9813 143.486 93.6034 140.854 91.761C138.373 90.0243 135.437 88.9916 132.669 89.5393C130.14 90.0397 126.711 92.2628 124.141 95.2924C124.141 95.2924 118.162 102.411 116.29 104.881C114.466 107.29 109.357 114.787 109.357 114.787C107.419 117.554 106.649 120.969 107.215 124.281C107.781 127.594 109.637 130.533 112.374 132.452C114.215 133.741 115.797 134.084 117.899 134.197C121.421 134.404 126.433 132.649 129.212 129.244Z" fill="#2E89EA"/>
<path d="M117.97 108.612C115.976 110.175 116.254 112.409 116.543 114.77C116.685 115.733 116.757 116.705 116.76 117.68C116.721 119.502 115.851 121.685 115.082 123.611C114.429 125.242 113.858 126.646 113.931 127.549C114.01 128.674 114.362 130.139 115.602 130.734C116.941 131.368 118.951 130.777 121.59 128.963C124.72 126.81 125.755 124.906 126.52 123.505C127.285 122.103 127.767 121.213 129.786 120.801C130.836 120.587 131.772 120.476 132.597 120.377C135.131 120.068 136.808 119.866 137.833 117.137C138.142 116.313 138.383 115.536 138.599 114.851C139.301 112.614 139.759 111.143 141.596 110.419C142.112 110.222 142.63 110.03 143.124 109.852L143.747 109.627L143.882 109.433C144.001 109.264 144.115 109.092 144.224 108.918C143.836 109.071 143.41 109.224 142.961 109.386C142.466 109.561 141.949 109.751 141.415 109.956C139.349 110.765 138.843 112.423 138.128 114.709C137.916 115.385 137.677 116.155 137.371 116.965C136.452 119.41 135.055 119.588 132.537 119.88C131.702 119.981 130.755 120.094 129.688 120.311C127.442 120.767 126.842 121.869 126.082 123.265C125.321 124.66 124.341 126.463 121.308 128.55C118.828 130.255 116.98 130.837 115.813 130.279C114.792 129.791 114.493 128.503 114.424 127.509C114.371 126.727 114.939 125.299 115.532 123.783C116.309 121.814 117.205 119.592 117.247 117.679C117.246 116.68 117.172 115.683 117.027 114.696C116.745 112.377 116.495 110.384 118.264 108.993C120.48 107.255 120.839 104.027 121.105 101.676C121.18 101.14 121.24 100.625 121.305 100.206C121.539 98.9121 122.819 98.6261 124.439 98.2624C125.273 98.0958 126.092 97.8578 126.887 97.551C129.32 96.5496 130.926 95.8883 132.647 96.4775C133.319 96.7285 133.977 97.0149 134.618 97.3357C136.051 98.0145 137.674 98.7833 139.235 98.8848C140.959 98.9941 141.355 99.8988 141.667 100.623C141.73 100.779 141.802 100.931 141.883 101.078C142.142 101.523 143.036 102.188 144.07 102.96C144.734 103.452 145.419 103.965 145.871 104.378C145.964 104.465 146.045 104.563 146.115 104.67C146.169 104.472 146.22 104.274 146.264 104.074C146.246 104.053 146.226 104.032 146.206 104.012C145.737 103.581 145.04 103.063 144.365 102.56C143.5 101.915 142.518 101.183 142.312 100.82C142.24 100.691 142.177 100.557 142.121 100.42C141.783 99.686 141.302 98.5429 139.266 98.4033C137.795 98.3048 136.218 97.5581 134.826 96.8965C134.168 96.5682 133.492 96.2755 132.802 96.0196C130.914 95.3772 129.141 96.0973 126.703 97.1069C125.933 97.3989 125.14 97.6239 124.333 97.7791C123.03 98.0798 121.797 98.3502 121.179 99.2332C120.995 99.5005 120.872 99.8049 120.819 100.124C120.741 100.554 120.683 101.078 120.621 101.634C120.369 103.898 120.02 107.003 117.97 108.612Z" fill="#005BBD"/>
<path d="M136.465 101.081C135.599 100.899 134.777 100.727 133.943 100.186C132.334 99.1411 131.421 99.433 128.983 100.212L128.592 100.342C127.913 100.557 127.257 100.714 126.676 100.85C125.375 101.152 124.264 101.419 123.714 102.205C123.482 102.552 123.355 102.958 123.349 103.374C123.234 105.416 122.688 106.891 121.119 109.222C119.897 111.058 119.982 112.227 120.099 113.848C120.136 114.374 120.181 114.97 120.18 115.654C120.178 117.044 119.318 118.6 118.555 119.973C117.856 121.233 117.197 122.423 117.263 123.367C117.329 124.31 117.523 125.568 118.468 126.005C119.332 126.409 120.572 126.001 122.284 124.78C123.476 123.957 124.43 122.831 125.047 121.519C125.746 120.189 126.347 119.052 129.535 117.73C134.24 115.78 135.148 113.681 136.019 111.66C136.219 111.194 136.407 110.758 136.652 110.326C137.333 109.054 138.277 108.232 139.036 107.572C139.69 107.002 140.21 106.551 140.28 106.018C140.34 105.757 140.954 102.752 138.903 101.829C138.122 101.487 137.304 101.236 136.465 101.081ZM139.79 105.903L139.776 105.923C139.756 106.046 139.706 106.162 139.63 106.26C139.35 106.596 139.036 106.902 138.692 107.171C137.938 107.82 136.916 108.714 136.197 110.068C135.952 110.525 135.751 110.993 135.558 111.44C134.72 113.379 133.856 115.381 129.336 117.255C125.981 118.644 125.31 119.921 124.597 121.27C124.019 122.515 123.117 123.583 121.987 124.36C120.463 125.458 119.349 125.848 118.666 125.537C118.131 125.29 117.829 124.56 117.741 123.31C117.694 122.52 118.31 121.387 118.972 120.192C119.761 118.768 120.656 117.155 120.662 115.634C120.662 114.934 120.619 114.327 120.581 113.795C120.466 112.217 120.39 111.173 121.517 109.482C123.14 107.068 123.719 105.533 123.838 103.392C123.908 102.065 124.842 101.785 126.781 101.329C127.371 101.19 128.037 101.032 128.734 100.811L129.125 100.681C131.533 99.9171 132.257 99.6877 133.671 100.601C134.582 101.194 135.446 101.374 136.356 101.571C137.161 101.711 137.947 101.943 138.697 102.264C140.421 103.037 139.796 105.873 139.79 105.903Z" fill="#005BBD"/>
<path d="M126.374 104.603C126.204 104.841 126.093 105.116 126.051 105.404C125.757 107.518 125.069 109.422 124.254 110.373C123.632 111.102 123.268 112.814 123.742 113.934C123.847 114.223 124.036 114.473 124.285 114.653C124.533 114.832 124.83 114.932 125.138 114.941C125.543 114.965 125.946 115.012 126.345 115.08C127.572 115.266 128.729 115.439 129.998 113.999C130.547 113.366 131.022 112.672 131.414 111.932C131.842 111.176 132.21 110.525 133.06 109.889C133.353 109.673 133.656 109.466 133.939 109.255C135.302 108.29 136.477 107.455 136.546 106.388C136.607 106.176 136.878 105.056 136.162 104.3L136.006 104.136C135.347 103.432 134.523 102.556 133.013 102.411C131.594 102.285 127.572 102.892 126.374 104.603ZM135.634 104.476L135.793 104.642C136.367 105.247 136.064 106.253 136.057 106.272L136.047 106.338C136.015 107.18 134.87 107.994 133.656 108.854C133.362 109.064 133.061 109.274 132.768 109.497C131.833 110.194 131.422 110.922 130.985 111.692C130.611 112.404 130.156 113.07 129.629 113.677C128.547 114.902 127.663 114.771 126.428 114.58C126.034 114.522 125.616 114.454 125.172 114.438C124.956 114.433 124.748 114.362 124.575 114.235C124.402 114.109 124.271 113.932 124.201 113.728C123.814 112.811 124.112 111.283 124.628 110.692C125.502 109.67 126.237 107.668 126.54 105.465C126.803 103.567 131.412 102.764 132.948 102.911C134.272 103.038 134.992 103.806 135.634 104.476Z" fill="#005BBD"/>
<path d="M131.479 104.478C130.092 104.823 128.519 105.904 127.817 106.907C127.67 107.106 127.558 107.328 127.486 107.564C127.429 107.722 127.417 107.893 127.454 108.056C127.49 108.219 127.572 108.368 127.69 108.486C128.306 109.041 129.118 109.329 129.949 109.288C130.324 109.282 130.694 109.199 131.037 109.043C131.379 108.888 131.686 108.663 131.939 108.383C132.596 107.687 133.044 106.82 133.232 105.884C133.288 105.732 133.479 105.102 133.129 104.693C132.844 104.342 132.285 104.278 131.479 104.478ZM132.755 105.013C132.921 105.205 132.821 105.596 132.768 105.728L132.751 105.795C132.751 105.795 132.618 106.885 131.575 108.049C131.365 108.279 131.111 108.462 130.828 108.589C130.545 108.716 130.24 108.783 129.931 108.787C129.234 108.821 128.554 108.584 128.032 108.125C127.967 108.061 127.885 107.946 127.956 107.69C128.207 106.808 129.924 105.366 131.593 104.958C132.185 104.811 132.598 104.831 132.755 105.013Z" fill="#005BBD"/>
<path d="M124.529 131.665C124.013 132.232 123.471 132.825 122.85 133.443C123.215 133.319 123.577 133.184 123.935 133.032C124.27 132.678 124.587 132.333 124.891 131.997C126.44 130.299 127.795 128.816 130.481 127.62L131.106 126.83L131.002 126.872C127.731 128.153 126.248 129.78 124.529 131.665Z" fill="#005BBD"/>
<path d="M109.396 114.709L109.347 114.78C109.246 114.924 109.144 115.069 109.055 115.222C109.916 117.573 110.657 120.059 109.016 123.612C108.532 124.664 108.104 125.541 107.725 126.288C107.797 126.499 107.879 126.699 107.958 126.912C108.388 126.079 108.885 125.069 109.464 123.817C111.269 119.909 110.284 117.136 109.396 114.709Z" fill="#005BBD"/>
<path d="M143.89 94.4161C143.723 94.2263 143.551 94.0426 143.357 93.8489C143 93.8054 142.596 93.7652 142.141 93.7254C138.484 93.4028 134.645 92.6498 133.904 89.5188C133.894 89.4816 133.887 89.4402 133.879 89.4009C133.714 89.4096 133.547 89.4204 133.382 89.438L133.423 89.6365C134.236 93.0703 138.26 93.8857 142.094 94.2169C142.836 94.2845 143.426 94.346 143.89 94.4161Z" fill="#005BBD"/>
<path d="M127.116 94.6948C131.933 93.2864 132.446 93.5751 134.149 94.5068L134.366 94.6253C136.031 95.5356 136.132 95.5581 138.859 95.9662C139.385 96.0464 140.009 96.1407 140.756 96.2572C143.152 96.6367 143.629 97.6617 144.291 99.0772C144.737 100.035 145.275 101.175 146.519 102.325C146.541 102.11 146.554 101.894 146.561 101.678C145.783 100.86 145.162 99.9037 144.73 98.8571C144.081 97.4356 143.5 96.1952 140.841 95.7711C140.088 95.6505 139.462 95.5547 138.943 95.4822C136.2 95.0628 136.2 95.0628 134.611 94.1937L134.394 94.0751C132.597 93.0841 131.991 92.7505 126.977 94.2158C126.19 94.4457 125.392 94.6317 124.586 94.773C124.432 94.9412 124.28 95.1108 124.131 95.2853L124.077 95.3626C125.103 95.2088 126.118 94.9857 127.116 94.6948Z" fill="#005BBD"/>
<path d="M127.103 126.616C125.04 129.898 121.792 131.511 118.026 133.376C117.597 133.591 117.184 133.836 116.79 134.109C117.047 134.14 117.309 134.169 117.588 134.182C117.797 134.056 118.014 133.935 118.24 133.821C122.075 131.921 125.389 130.282 127.521 126.876C128.616 125.126 130.563 124.497 132.621 123.834C132.989 123.715 133.356 123.597 133.721 123.47L134.297 122.734C133.702 122.966 133.092 123.169 132.476 123.363C130.423 124.024 128.301 124.711 127.103 126.616Z" fill="#005BBD"/>
<path d="M113.187 123.909C115.101 120.444 114.479 117.539 113.923 114.985C113.421 112.667 112.992 110.656 114.506 108.707C116.021 106.757 116.689 105.242 117.107 103.812C116.786 104.219 116.503 104.581 116.28 104.874L116.137 105.077C115.613 106.274 114.934 107.398 114.119 108.42C112.459 110.56 112.934 112.771 113.439 115.107C113.973 117.581 114.579 120.385 112.755 123.685C111.824 125.368 110.905 126.916 110.095 128.283L109.375 129.501C109.479 129.644 109.585 129.788 109.694 129.928L110.517 128.533C111.333 127.149 112.253 125.599 113.187 123.909Z" fill="#005BBD"/>
<path d="M128.361 91.5049C127.444 92.124 126.577 92.816 125.77 93.5741C126.038 93.4754 126.292 93.3397 126.523 93.1708C127.181 92.6681 127.796 92.1108 128.361 91.5049Z" fill="#005BBD"/>
<path d="M111.981 129.688C112.123 129.669 112.162 129.703 112.176 129.713C112.312 129.823 112.357 130.312 112.393 130.865C112.409 131.073 112.426 131.306 112.454 131.559C112.554 132.578 113.353 132.752 113.886 132.865C114.196 132.933 114.307 132.971 114.34 133.018L114.037 133.391C114.194 133.462 114.355 133.523 114.506 133.578L114.777 133.243L114.818 133.184L114.827 133.111C114.885 132.569 114.365 132.454 113.984 132.373C113.389 132.241 112.996 132.108 112.936 131.491C112.91 131.242 112.892 131.014 112.878 130.807C112.821 130.031 112.779 129.555 112.481 129.316C112.401 129.255 112.309 129.212 112.211 129.189C112.113 129.167 112.011 129.165 111.912 129.185C111.701 129.213 111.424 129.493 111.115 129.934C110.932 130.196 110.737 130.518 110.536 130.877C110.652 130.998 110.772 131.115 110.89 131.229C111.381 130.36 111.786 129.755 111.981 129.688Z" fill="#005BBD"/>
</g>
<g clip-path="url(#clip11_11166_16905)">
<path d="M185.272 45.049L172.721 44.3901H160.629C156.84 44.3901 152.931 45.8234 150.592 48.4244C148.592 50.6517 147.887 53.791 147.887 57.0041C147.887 60.0329 148.724 63.0296 150.76 64.9841C152.621 66.7689 156.408 68.3029 160.364 68.6716C160.364 68.6716 169.624 69.4878 172.721 69.6058C175.741 69.7189 184.812 69.6058 184.812 69.6058C188.19 69.6065 191.429 68.2794 193.819 65.9163C196.208 63.5533 197.552 60.3476 197.555 57.0041C197.555 54.7572 196.929 53.2649 195.816 51.4777C193.966 48.4735 189.655 45.3735 185.272 45.049Z" fill="#2E89EA"/>
</g>
<rect x="17" y="219.17" width="228.825" height="1.33037" fill="#D7EAFF"/>
<path d="M56.0717 192.857L49.805 190.461C49.2521 190.093 48.8835 189.54 48.8835 188.802C48.8835 188.065 49.2521 187.697 49.6207 187.512C49.805 187.328 50.358 187.144 50.9109 187.144L57.1775 188.618C58.8363 188.987 60.4952 188.065 60.8638 186.406C61.2324 184.748 60.3108 183.089 58.652 182.72L54.9658 181.799V180.877C54.9658 180.508 54.9658 180.324 54.7815 180.14C54.4128 178.85 53.307 177.928 51.8325 177.928C50.358 177.928 49.4364 178.85 49.0678 180.14C49.0678 180.324 48.8835 180.693 48.8835 180.877V181.246C47.7776 181.614 46.6717 181.983 45.7501 182.72C43.907 184.195 42.8011 186.406 42.8011 188.802C42.8011 191.751 44.6443 194.516 47.409 195.806L53.8599 198.387C54.5971 198.755 54.9658 199.308 54.9658 200.045C54.9658 200.783 54.5971 201.336 54.2285 201.52C53.8599 201.704 53.307 202.073 52.5697 201.889L46.4874 200.598C44.8286 200.23 43.1698 201.151 42.8011 202.81C42.4325 204.469 43.3541 206.128 45.0129 206.496L48.6991 207.418V208.155C48.8835 209.814 50.1736 211.104 51.8325 211.104C53.4913 211.104 54.7815 209.814 54.7815 208.155V207.971C55.8873 207.787 56.8089 207.234 57.7305 206.496C59.7579 205.022 60.8638 202.626 60.8638 200.23C60.8638 197.096 59.0207 194.332 56.0717 192.857Z" fill="#006FE6"/>
<path d="M176.249 93.5226L169.983 91.1265C169.43 90.7579 169.061 90.205 169.061 89.4677C169.061 88.7305 169.43 88.3618 169.798 88.1775C169.983 87.9932 170.535 87.8089 171.088 87.8089L177.355 89.2834C179.014 89.652 180.673 88.7305 181.041 87.0716C181.41 85.4128 180.488 83.754 178.83 83.3854L175.143 82.4638V81.5423C175.143 81.1736 175.143 80.9893 174.959 80.805C174.59 79.5148 173.484 78.5933 172.01 78.5933C170.535 78.5933 169.614 79.5148 169.245 80.805C169.245 80.9893 169.061 81.358 169.061 81.5423V81.9109C167.955 82.2795 166.849 82.6481 165.928 83.3854C164.085 84.8599 162.979 87.0716 162.979 89.4677C162.979 92.4167 164.822 95.1814 167.586 96.4716L174.037 99.052C174.775 99.4206 175.143 99.9735 175.143 100.711C175.143 101.448 174.775 102.001 174.406 102.185C174.037 102.37 173.484 102.738 172.747 102.554L166.665 101.264C165.006 100.895 163.347 101.817 162.979 103.475C162.61 105.134 163.532 106.793 165.19 107.162L168.877 108.083V108.821C169.061 110.479 170.351 111.77 172.01 111.77C173.669 111.77 174.959 110.479 174.959 108.821V108.636C176.065 108.452 176.986 107.899 177.908 107.162C179.935 105.687 181.041 103.291 181.041 100.895C181.041 97.7618 179.198 94.9971 176.249 93.5226Z" fill="#78BC61"/>
</g>
<defs>
<clipPath id="clip0_11166_16905">
<rect width="50.5543" height="49.6674" fill="white" transform="translate(26.7561 169.502)"/>
</clipPath>
<clipPath id="clip1_11166_16905">
<rect width="50.5543" height="49.6674" fill="white" transform="translate(147 69.6675)"/>
</clipPath>
<clipPath id="clip2_11166_16905">
<rect width="49.6674" height="50.1109" fill="white" transform="translate(146.933 169.059) rotate(-90)"/>
</clipPath>
<clipPath id="clip3_11166_16905">
<rect width="49.6674" height="49.6674" fill="white" transform="translate(77.3105 169.502)"/>
</clipPath>
<clipPath id="clip4_11166_16905">
<rect width="50.1109" height="50.1109" fill="white" transform="translate(146.933 169.059)"/>
</clipPath>
<clipPath id="clip5_11166_16905">
<rect width="48.7805" height="49.6674" fill="white" transform="translate(25.8694 119.835)"/>
</clipPath>
<clipPath id="clip6_11166_16905">
<rect width="50.1109" height="24.3902" fill="white" transform="translate(197.111 43.8901) rotate(-180)"/>
</clipPath>
<clipPath id="clip7_11166_16905">
<rect width="50.1109" height="49.6674" fill="white" transform="translate(75.1108 119.667) rotate(-180)"/>
</clipPath>
<clipPath id="clip8_11166_16905">
<rect width="49.6674" height="50.1109" fill="white" transform="translate(197.044 169.059)"/>
</clipPath>
<clipPath id="clip9_11166_16905">
<rect width="49.6674" height="50.1109" fill="white" transform="translate(78.5 120)"/>
</clipPath>
<clipPath id="clip10_11166_16905">
<rect width="49.6674" height="25.2772" fill="white" transform="translate(151.188 98.9939) rotate(124.988)"/>
</clipPath>
<clipPath id="clip11_11166_16905">
<rect width="49.6674" height="25.2772" fill="white" transform="translate(147.887 44.3901)"/>
</clipPath>
</defs>
</svg>
