<svg id="Layer_1" data-name="Layer 1" xmlns="http://www.w3.org/2000/svg" xmlns:xlink="http://www.w3.org/1999/xlink" viewBox="0 0 80.02 79.95"><defs><style>.cls-1{fill:none;}.cls-2{clip-path:url(#clip-path);}.cls-3{fill:#008bff;}.cls-4{fill:#ffbe0b;}</style><clipPath id="clip-path" transform="translate(0 0)"><rect class="cls-1" width="80" height="80"/></clipPath></defs><g class="cls-2"><path class="cls-3" d="M76.68,5.08S66.22,4.21,57.48,4c1.2,1.47,3.27,4.07,4,5.2,1.27,1.94,4.67,7.94,4.67,7.94l-.33-.07.33.47-.93,9.73-2.8,28.87a1.92,1.92,0,0,1-2.2,1.66S42.08,56.48,36,55.88c-5.07-.53-20.27-2.4-20.27-2.4a2,2,0,0,1-1.87-2.07s.4-7,.54-8.86c.4-7,3-29.74,3.93-37.94L4,5.08A3.26,3.26,0,0,0,.68,8.15S-.38,47.88.15,61.75c.13,3.13.53,14.46.53,14.46A3.17,3.17,0,0,0,4,79.28S29,80,37.22,80c9.86,0,39.46-.67,39.46-.67A3.26,3.26,0,0,0,80,76.21V8.15A3.21,3.21,0,0,0,76.68,5.08Z" transform="translate(0 0)"/><path class="cls-4" d="M13.82,51.41a1.9,1.9,0,0,0,1.86,2.07s15.2,1.87,20.27,2.4c6.07.6,24.2,1.93,24.2,1.93a1.92,1.92,0,0,0,2.2-1.66l2.8-28.87.93-9.73-.33-.47L58,16.35a2.69,2.69,0,0,1-2.4-2.94L56.68,3c-1.86-.27-3.86-.54-5.53-.67C43.62,1.55,20.88,0,20.88,0a1.94,1.94,0,0,0-2.2,1.67s-.13,1.07-.33,2.93c-.93,8.14-3.53,30.94-3.93,37.94C14.28,44.48,13.82,51.41,13.82,51.41Zm20.53-15.6a76.35,76.35,0,0,1-4.8,11.27,2,2,0,0,1-3.53-.2c-1.8-4.73-3.14-7.53-3.94-10.67a17.32,17.32,0,0,1-.6-3c0-3.73,3.8-6.8,7.54-6.6,3.2.14,5.2,2.67,5.6,5.87A18.18,18.18,0,0,1,34.35,35.81ZM30.28,20.55c-2.4-.2-4.6-.47-6.2-.74-.6-.13-1.06-.33-1.06-.6A16.11,16.11,0,0,1,23,17.15a2.5,2.5,0,0,1,.4-1.34,1.3,1.3,0,0,1,1.13-.4c3.27.2,10.54.94,12.74,1.14,2.6.26,4.8.53,6.4.73.6.07,1.06.33,1.06.6v2.2a8.68,8.68,0,0,1-.33,1.07c-.07.26-.53.4-1.13.4C40,21.28,32.68,20.81,30.28,20.55Zm-6.6-10.8a2.5,2.5,0,0,1,.4-1.34A1.32,1.32,0,0,1,25.22,8C28.48,8.21,35.75,9,38,9.15c2.6.26,4.8.53,6.4.73.6.07,1.07.33,1.07.6v2.2a10.61,10.61,0,0,1-.34,1.07c-.06.26-.53.4-1.13.4-3.27-.34-10.6-.8-12.93-1.07s-4.6-.47-6.2-.73c-.6-.14-1.07-.34-1.07-.6A17.05,17.05,0,0,1,23.68,9.75ZM58,31.08a.73.73,0,0,1,.66.8l-1.06,8-.14,1-.93,7a.76.76,0,0,1-.87.6s-7-.73-9.33-1.07c-1.93-.26-7.8-1.2-7.8-1.2a.74.74,0,0,1-.67-.8s.27-2.6.34-3.33V42c.33-3.26,1.8-12.6,1.8-12.6a.75.75,0,0,1,.86-.6s8.74.87,11.6,1.27C54.68,30.41,58,31.08,58,31.08Z" transform="translate(0 0)"/><path class="cls-4" d="M30.15,32.61v-.06c-.07-.2-.13-.4-.2-.6a1.25,1.25,0,0,0-.33-.47,1.44,1.44,0,0,0-.34-.27l-.8-.4a3.18,3.18,0,0,0-.66-.13h-.27a.39.39,0,0,0-.27.07h-.06a2.46,2.46,0,0,0-1.07.8.31.31,0,0,0-.13.2,1.42,1.42,0,0,0-.27,1.13,1.57,1.57,0,0,0,.07.53v.2a3.66,3.66,0,0,0,.33.8,1.44,1.44,0,0,0,.53.54,2.31,2.31,0,0,0,.74.26h.33a1.41,1.41,0,0,0,.53-.06h.14a4.44,4.44,0,0,0,.8-.27,1.87,1.87,0,0,0,.66-.6,1.28,1.28,0,0,0,.2-.47,1.39,1.39,0,0,0,.07-.53v-.07A1.73,1.73,0,0,0,30.15,32.61Z" transform="translate(0 0)"/><path class="cls-3" d="M53.48,38.75A13.87,13.87,0,0,0,50.62,40c-.87.4-2.34,1.6-3.2,2a1.56,1.56,0,0,1-1.54-.46l-1.26-1.87a1.59,1.59,0,0,0-1.87-.13c-.6.33-2.2,1.06-2.73,1.4s-1.07.73-1.74,1.13c-.06.8-.33,3.33-.33,3.33a.7.7,0,0,0,.67.8s5.86.94,7.8,1.2c2.33.34,9.33,1.07,9.33,1.07a.76.76,0,0,0,.87-.6l.93-7A18.13,18.13,0,0,0,55.08,39,2.62,2.62,0,0,0,53.48,38.75Z" transform="translate(0 0)"/><path class="cls-3" d="M46.35,33.81a2.15,2.15,0,0,0-.13-.66,2.61,2.61,0,0,0-.34-.6c-.06-.14-.2-.2-.33-.34a5.27,5.27,0,0,0-.8-.53l-.6-.2h-.6a2.52,2.52,0,0,0-1.27.73l-.2.2a1.73,1.73,0,0,0-.46,1.2v.74a4.62,4.62,0,0,0,.26.93,1.47,1.47,0,0,0,.47.6,1.64,1.64,0,0,0,.73.4c.14,0,.2.07.34.07h.06c.2,0,.4.06.6.06h.14a2.23,2.23,0,0,0,.93-.2,3,3,0,0,0,.8-.6,3.5,3.5,0,0,0,.33-.53,1.87,1.87,0,0,0,.14-.6v-.07a1.23,1.23,0,0,0,0-.66C46.35,33.88,46.35,33.88,46.35,33.81Z" transform="translate(0 0)"/></g></svg>