<svg id="Layer_1" data-name="Layer 1" xmlns="http://www.w3.org/2000/svg" xmlns:xlink="http://www.w3.org/1999/xlink" viewBox="0 0 80 80"><defs><style>.cls-1{fill:none;}.cls-2{clip-path:url(#clip-path);}.cls-3{fill:#008bff;}.cls-4{fill:#ffbe0b;}</style><clipPath id="clip-path" transform="translate(0 0)"><rect class="cls-1" width="80" height="80"/></clipPath></defs><g class="cls-2"><path class="cls-3" d="M76.67,5.09S62.75,3.92,53.59,3.92a18.14,18.14,0,0,1,3.74,3.83,18.51,18.51,0,0,1,3.59,12.42l-1,12.75A13.15,13.15,0,0,0,62.58,42a5.22,5.22,0,0,1,1,3.83c-.41,2.84-3,4.42-5.83,4.34s-7.25-.5-11.5-1.09a9.26,9.26,0,0,1-16.83,1,8.39,8.39,0,0,1-1.08-3.83l-2.84-.5c-2.58-.42-4.91-.92-6.75-1.33a5.31,5.31,0,0,1-4.33-5.84,5.21,5.21,0,0,1,2-3.41,13.31,13.31,0,0,0,5.08-7.92l2.67-12.5C25,10.92,26.5,7,29,4.25L4,5.09A3.24,3.24,0,0,0,.67,8.17S-.41,47.83.17,61.83c.09,3.08.5,14.42.5,14.42A3.19,3.19,0,0,0,4,79.33S28.92,80,37.25,80c9.84,0,39.42-.67,39.42-.67A3.25,3.25,0,0,0,80,76.25V8.17A3.19,3.19,0,0,0,76.67,5.09Z" transform="translate(0 0)"/><path class="cls-4" d="M21.5,27.33a13.31,13.31,0,0,1-5.08,7.92,5,5,0,0,0-2,3.42,5.32,5.32,0,0,0,4.33,5.83c1.84.42,4.17.92,6.75,1.33.92.17,1.84.34,2.84.5,2.66.42,5.33.84,7.66,1.25,2.59.42,6.5,1,10.34,1.5,4.25.5,8.58,1,11.5,1.09s5.41-1.5,5.83-4.34a5.31,5.31,0,0,0-1-3.83A13.16,13.16,0,0,1,60,32.92l.84-12.75A18.51,18.51,0,0,0,57.25,7.75a16.06,16.06,0,0,0-3.66-3.83A18.35,18.35,0,0,0,45,.34C40.17-.41,34.75,0,31.09,2.5A11.12,11.12,0,0,0,29,4.34a22.57,22.57,0,0,0-4.83,10.49Z" transform="translate(0 0)"/></g></svg>