<svg id="Layer_1" data-name="Layer 1" xmlns="http://www.w3.org/2000/svg" viewBox="0 0 80 80"><defs><style>.cls-1{fill:#008bff;}.cls-2{fill:#ffbe0b;}</style></defs><path class="cls-1" d="M76.67,5S66,4.19,57.17,3.94A27.7,27.7,0,0,1,70.42,23.71C72.67,38.88,62.25,53,48.67,55.06L26.92,58.31c-5.33.84-7.25-2.25-8.33-6.17-1.42-5.25-2.59-14.76-3-20.26C14.67,20.37,18.67,10.11,28,4.36,15.59,4.69,4,5,4,5A3.25,3.25,0,0,0,.67,8.11s-1.08,39.7-.5,53.7c.09,3.09.5,14.43.5,14.43A3.2,3.2,0,0,0,4,79.33S28.92,80,37.25,80c9.84.09,39.42-.58,39.42-.58A3.25,3.25,0,0,0,80,76.32V8.2A3.26,3.26,0,0,0,76.67,5Z" transform="translate(0 0)"/><path class="cls-2" d="M15.5,32c.42,5.51,1.59,15,3,20.26,1.09,3.92,3,6.93,8.34,6.18l21.83-3.34C62.33,53,72.75,38.88,70.42,23.71A27.84,27.84,0,0,0,57.25,3.94,28.28,28.28,0,0,0,38.92.27a33.83,33.83,0,0,0-11,4.09C18.67,10.11,14.67,20.45,15.5,32Zm16.92,5.17a.8.8,0,0,1-.83-.67.74.74,0,0,1,.66-.83l1.42-.17L33.84,37A3.92,3.92,0,0,1,32.42,37.13Zm-.42-4a.81.81,0,0,1-.83-.67.75.75,0,0,1,.67-.83l1.41-.17.17,1.5ZM31.5,29a.81.81,0,0,1-.83-.66.76.76,0,0,1,.67-.84l1.41-.16.17,1.5ZM31.09,25a.82.82,0,0,1-.84-.67.74.74,0,0,1,.67-.83l1.42-.17.16,1.5C32.59,24.87,31.75,25,31.09,25Zm6.5,16.51a.82.82,0,0,1-.84-.67l-.08-1.5,1.42-.17s.08.84.16,1.5A.75.75,0,0,1,37.59,41.47Zm4-.42a.82.82,0,0,1-.84-.67l-.16-1.5L42,38.72s.09.83.17,1.5C42.34,40.63,42,41,41.59,41.05Zm4.08-.42a.8.8,0,0,1-.83-.66l-.17-1.5,1.42-.17s.08.83.16,1.5A.69.69,0,0,1,45.67,40.63Zm4-.41a.8.8,0,0,1-.83-.67l-.17-1.5,1.42-.17s.08.84.16,1.5A.7.7,0,0,1,49.67,40.22ZM50,37.05,36.67,38.38a1.67,1.67,0,0,1-1.83-1.5L33.25,23.37a1.82,1.82,0,0,1,1.5-1.91l13.34-1.34a1.68,1.68,0,0,1,1.83,1.5l1.5,13.51A1.6,1.6,0,0,1,50,37.05ZM34.5,19.12a.74.74,0,0,1,.67-.83A.8.8,0,0,1,36,19l.17,1.5-1.42.17A4.55,4.55,0,0,1,34.5,19.12Zm4-.42a.75.75,0,0,1,.67-.83.8.8,0,0,1,.83.67l.17,1.5-1.42.16A6.89,6.89,0,0,1,38.5,18.7Zm4-.41a.76.76,0,0,1,.67-.84.8.8,0,0,1,.83.67l.17,1.5-1.42.17A7,7,0,0,1,42.5,18.29Zm4-.42a.74.74,0,0,1,.67-.83.8.8,0,0,1,.83.66l.17,1.5-1.5.17S46.59,18.54,46.5,17.87Zm4.42,3.59,1.42-.17a.81.81,0,0,1,.83.67.75.75,0,0,1-.67.83L51.09,23Zm.42,4.08s.83-.08,1.41-.17a.82.82,0,0,1,.84.67.76.76,0,0,1-.67.84L51.5,27Zm.41,4.09s.84-.09,1.42-.17a.8.8,0,0,1,.83.67.74.74,0,0,1-.66.83l-1.42.17ZM53.84,35l-1.42.17-.17-1.5s.84-.08,1.42-.17a.8.8,0,0,1,.83.67C54.5,34.63,54.25,35,53.84,35Z" transform="translate(0 0)"/></svg>