<svg id="Layer_1" data-name="Layer 1" xmlns="http://www.w3.org/2000/svg" viewBox="0 0 80 75.92"><defs><style>.cls-1{fill:#008bff;}.cls-2{fill:#ffbe0b;}.cls-3{fill:#fff;}</style></defs><path class="cls-1" d="M76.59,5.08S65.35,4.17,56.44,4c3.5,1.08,5.83,1.91,5.83,1.91a4.72,4.72,0,0,1,3.25,5.25L63.68,23.64l-.74,4.83A35.14,35.14,0,0,1,48,52.11a26.42,26.42,0,0,1-7.16,2.83,12,12,0,0,1-9.57-1.25C26.89,51.11,23.4,48,21.07,43.54,18,37.71,16.82,29.39,17.9,22.4c.17-1.17,2.33-15.82,2.67-17.73C11.33,4.92,4,5.08,4,5.08A3.25,3.25,0,0,0,.67,8.16S-.41,47.78.17,61.77c.09,3.08.5,14.4.5,14.4A3.19,3.19,0,0,0,4,79.25s24.89.67,33.21.67c9.83,0,39.46-.67,39.46-.67A3.25,3.25,0,0,0,80,76.17v-68A3.38,3.38,0,0,0,76.59,5.08Z" transform="translate(0 -4)"/><path class="cls-2" d="M28.72,7.08a3.57,3.57,0,0,0-3.49,3.08s-1.92,12.74-2,13.65a27.59,27.59,0,0,0,2.41,16.07,20.13,20.13,0,0,0,7.75,7.65,9.31,9.31,0,0,0,7.32,1,25.08,25.08,0,0,0,5.41-2.16,26.85,26.85,0,0,0,11.41-17.9l.58-3.66,1.41-9.49A3.49,3.49,0,0,0,57,11.41S45.46,7,35.88,6.91C33.88,6.83,28.72,7.08,28.72,7.08ZM36.05,22.4l1.83,2.41c.17.17.42.25.58.08l4.25-3.08L46,19.32c.16-.17.41-.09.58.08A15,15,0,0,1,48,20.9c.34.5,1.58,2.41,1.58,2.41a.4.4,0,0,1-.08.58L45,27.22l-5.58,4.17A3.25,3.25,0,0,1,35,30.8c-.5-.66-1.58-1.91-2.08-2.58s-1.42-2.41-1.42-2.41a.41.41,0,0,1,.08-.58S33,24,33.47,23.56s2-1.25,2-1.25C35.63,22.23,36,22.23,36.05,22.4Z" transform="translate(0 -4)"/><path class="cls-3" d="M33.47,23.56c-.5.42-1.92,1.67-1.92,1.67a.41.41,0,0,0-.08.58s1,1.83,1.42,2.41S34.38,30.14,35,30.8a3.26,3.26,0,0,0,4.41.59L45,27.22,49.37,24c.16-.17.25-.42.08-.59,0,0-1.25-2-1.58-2.41s-1.33-1.5-1.33-1.5c-.17-.16-.42-.25-.59-.08l-3.33,2.5L38.38,25a.41.41,0,0,1-.58-.09L36,22.48a.41.41,0,0,0-.59-.08C35.47,22.31,34,23.23,33.47,23.56Z" transform="translate(0 -4)"/></svg>