<svg id="Layer_1" data-name="Layer 1" xmlns="http://www.w3.org/2000/svg" xmlns:xlink="http://www.w3.org/1999/xlink" viewBox="0 0 80 76"><defs><style>.cls-1{fill:none;}.cls-2{clip-path:url(#clip-path);}.cls-3{fill:#008bff;}.cls-4{fill:#ffbe0b;}</style><clipPath id="clip-path" transform="translate(0 -4)"><rect class="cls-1" width="80" height="80"/></clipPath></defs><g class="cls-2"><path class="cls-3" d="M76.62,5.1s-11-.89-19.85-1.1l2.71,15.82,2.74,13.94a1.54,1.54,0,0,1-1.43,1.6s-17.48,1.71-22.2,2.08c-4,.31-19.25,1.19-19.25,1.19a1.54,1.54,0,0,1-1.67-1.36V24.06c0-7.43.59-17.59.7-19.38L4,5.1a3.07,3.07,0,0,0-1.24.19A3.1,3.1,0,0,0,1,7,3.35,3.35,0,0,0,.69,8.16S-.39,47.87.16,61.79c.11,3.1.53,14.44.53,14.44A3.12,3.12,0,0,0,1,77.46a3,3,0,0,0,.73,1,3,3,0,0,0,1.07.66,3.11,3.11,0,0,0,1.24.2s24.89.66,33.2.67c9.86,0,39.45-.67,39.45-.67a3.11,3.11,0,0,0,1.24-.2A3.3,3.3,0,0,0,79,78.47a3.08,3.08,0,0,0,.73-1A3,3,0,0,0,80,76.23V8.16a3.22,3.22,0,0,0-.3-1.22,3.14,3.14,0,0,0-.75-1,3.06,3.06,0,0,0-1.08-.65A3.33,3.33,0,0,0,76.62,5.1Z" transform="translate(0 -4)"/><path class="cls-4" d="M61.44,47.72s-16.73,1.4-22.3,1.84C34.44,49.93,20.36,51,20.36,51c-1,.08-1.88,0-1.91-.27,0,0-.35-1.52-.45-1.94-.46-1.87-.27-7.3-.27-7.3,0-.24.83-.5,1.83-.57,0,0,20.9-1.8,27.86-2.36,5.18-.41,13.23-.88,13.23-.88,1-.08,1.89,0,1.9.27l.37,4.63.37,4.61C63.29,47.37,62.46,47.63,61.44,47.72Z" transform="translate(0 -4)"/><path class="cls-3" d="M25.35,46.32a1.66,1.66,0,0,0,.14-.88,3.4,3.4,0,0,0-.07-.46,1.9,1.9,0,0,0-.12-.36,1.36,1.36,0,0,0-.21-.37L25,44.14l-.2-.16a1.37,1.37,0,0,0-.47-.23,2.29,2.29,0,0,0-.9-.09,1.41,1.41,0,0,0-.48.12.93.93,0,0,0-.2.1h-.05a.75.75,0,0,0-.2.1,2,2,0,0,0-.33.32l-.07.08a1.85,1.85,0,0,0-.47,1.27,1.62,1.62,0,0,0,.16.57,1.44,1.44,0,0,0,.19.31,2.17,2.17,0,0,0,.35.39,1.93,1.93,0,0,0,.66.43,1.29,1.29,0,0,0,.28.08,1.48,1.48,0,0,0,.42,0,1.82,1.82,0,0,0,.46-.11l.31-.15a2.57,2.57,0,0,0,.53-.45l.05,0a2.32,2.32,0,0,0,.31-.46Z" transform="translate(0 -4)"/><path class="cls-3" d="M31.13,45.88a1.74,1.74,0,0,0,.15-.9,1.93,1.93,0,0,0-.08-.46,1.15,1.15,0,0,0-.11-.36,2.71,2.71,0,0,0-.21-.37l-.07-.11-.17-.14a1.74,1.74,0,0,0-.48-.22,2.69,2.69,0,0,0-1-.18,1.88,1.88,0,0,0-.48.12.75.75,0,0,0-.2.1h-.06l-.15.11a2.08,2.08,0,0,0-.34.32l-.06.09a1.83,1.83,0,0,0-.47,1.28,1.62,1.62,0,0,0,.16.57,1.92,1.92,0,0,0,.18.31,3.33,3.33,0,0,0,.36.39,2,2,0,0,0,.65.43A1.52,1.52,0,0,0,29,47a1.62,1.62,0,0,0,.44,0,1.36,1.36,0,0,0,.44-.11,1.14,1.14,0,0,0,.31-.16,2.56,2.56,0,0,0,.6-.29v0a2.1,2.1,0,0,0,.32-.46Z" transform="translate(0 -4)"/><path class="cls-3" d="M59,43.68a1.72,1.72,0,0,0,.18-.89,1,1,0,0,0-.08-.46,1.37,1.37,0,0,0-.11-.36,1.36,1.36,0,0,0-.21-.37l-.13-.12-.19-.15a1.56,1.56,0,0,0-.47-.22A2.29,2.29,0,0,0,57,41a1.41,1.41,0,0,0-.48.12.62.62,0,0,0-.2.1h0l-.16.1a2.65,2.65,0,0,0-.34.33l-.05.07A1.84,1.84,0,0,0,55.28,43a1.51,1.51,0,0,0,.16.56,1.69,1.69,0,0,0,.19.32,2.57,2.57,0,0,0,.35.39,2.16,2.16,0,0,0,.65.43l.29.08a1.55,1.55,0,0,0,.43,0,1.74,1.74,0,0,0,.45-.11,1.77,1.77,0,0,0,.31-.15,2.58,2.58,0,0,0,.54-.45l0-.05a2.06,2.06,0,0,0,.31-.46Z" transform="translate(0 -4)"/><path class="cls-4" d="M47.84,22.16c-1.34-.37-2.63,0-3.89-.31a2,2,0,0,0-1.22,0,1.91,1.91,0,0,0-1,.75L40.6,23.78a1.09,1.09,0,0,1-1.25.22,13.19,13.19,0,0,1-2.78-1.76,12.66,12.66,0,0,1-2.5-2.77,1.12,1.12,0,0,1-.19-.61,1.1,1.1,0,0,1,.19-.61l1.17-1.85a1.69,1.69,0,0,0,.4-.84,1.73,1.73,0,0,0-.11-.93,12.11,12.11,0,0,1-.9-3.74A1.72,1.72,0,0,0,34,9.72a1.74,1.74,0,0,0-1.24-.41s-3-.49-4.05-.1A2.31,2.31,0,0,0,27.3,11.5c.45,5.68,2.57,11.15,6.75,14.41,3.73,2.88,9.26,3.91,14.31,3.53a2.34,2.34,0,0,0,1.27-.59,2.27,2.27,0,0,0,.67-1.23,10.91,10.91,0,0,0-.58-3.49,2.73,2.73,0,0,0-1.88-2Z" transform="translate(0 -4)"/></g></svg>